<?xml version="1.0" encoding="UTF-8" standalone="no"?>
<svg
   xmlns:dc="http://purl.org/dc/elements/1.1/"
   xmlns:cc="http://creativecommons.org/ns#"
   xmlns:rdf="http://www.w3.org/1999/02/22-rdf-syntax-ns#"
   xmlns:svg="http://www.w3.org/2000/svg"
   xmlns="http://www.w3.org/2000/svg"
   xmlns:sodipodi="http://sodipodi.sourceforge.net/DTD/sodipodi-0.dtd"
   xmlns:inkscape="http://www.inkscape.org/namespaces/inkscape"
   viewBox="0 0 621.42859 539.08759"
   version="1.1"
   id="svg142"
   sodipodi:docname="alligator.svg"
   inkscape:version="0.92.1 r15371">
  <metadata
     id="metadata148">
    <rdf:RDF>
      <cc:Work
         rdf:about="">
        <dc:format>image/svg+xml</dc:format>
        <dc:type
           rdf:resource="http://purl.org/dc/dcmitype/StillImage" />
        <dc:title></dc:title>
      </cc:Work>
    </rdf:RDF>
  </metadata>
  <defs
     id="defs146" />
  <sodipodi:namedview
     pagecolor="#ffffff"
     bordercolor="#666666"
     borderopacity="1"
     objecttolerance="10"
     gridtolerance="10"
     guidetolerance="10"
     inkscape:pageopacity="0"
     inkscape:pageshadow="2"
     inkscape:window-width="1920"
     inkscape:window-height="1028"
     id="namedview144"
     showgrid="false"
     inkscape:zoom="1.2382196"
     inkscape:cx="394.37563"
     inkscape:cy="250.18758"
     inkscape:window-x="-8"
     inkscape:window-y="-8"
     inkscape:window-maximized="1"
     inkscape:current-layer="svg142" />
  <g
     transform="translate(-27.857 -254.27)"
     id="g140">
    <path
       d="m362.28 254.28c-6.7775 0.14198-13.049 1.711-18.188 3.625-2.5692 0.95701-4.843 1.9869-6.875 3.1875s-3.8882 1.6362-6.1875 5.9062c-4.0619 7.5435-0.84271 14.976 2.9688 19.469 1.9057 2.2464 4.1684 4.1393 7.0938 5.4688s6.9464 2.1774 11.188 0.625c8.8048-3.223 17.371-3.2138 20.781-2.5938 3.904 0.70983 9.0767-0.70886 12-3.9375s3.6728-7.0578 3.5312-10.375c-0.28306-6.6344-3.8071-12.611-9.7812-17.531a9.5223 9.5223 0 0 0 -2.5312 -1.5c-4.6852-1.8741-9.459-2.4389-14-2.3438zm48.156 9.5938c-2.773 0.0508-5.2631 0.32059-7.5938 0.8125-1.1653 0.24595-2.2741 0.52573-3.5312 1.0312s-2.7586 0.90405-4.8438 3.4062c-4.8278 5.7933-4.3769 12.541-3.125 17.219 0.62597 2.3387 1.5108 4.373 2.6875 6.2812s1.6727 4.1617 6.9062 5.9062l0.0937 0.0313c-1.9518 1.2392-3.7493 2.7265-5.4062 4.4375-8.5662-7.147-19.9-10.52-30.625-10.594-8.0084-0.0552-15.986 1.6296-22.906 5.5938-4.3 2.4633-8.0629 6.0633-10.906 10.438-2.8801-0.66929-5.963-1.3926-9.6875-2.0625-4.7226-0.84936-9.8061-1.5813-14.75-1.8125s-9.6033-0.31287-14.781 1.9062c-12.962 5.5552-31.031 19.507-37.812 24.781-5.605 4.3594-8.7956 10.206-11.219 16.375s-4.5124 12.244-1.9688 19.875c2.143 6.4291 5.9434 11.025 9.4375 16.438 1.7471 2.706 3.3603 5.3256 4.4688 7.375s1.4958 3.8994 1.375 2.8125c0.40317 3.6286 1.1913 9.142 1.1875 14.281s-1.7115 9.0553-1.3125 8.6562c-5.8372 5.8372-7.0439 13.631-6.4062 20s2.6805 11.898 6.625 16.5c1.5886 1.8534 2.9078 3.0691 4 4-0.0472 0.086-0.0104 3e-3 -0.0625 0.0937-2.749 4.8107-5.6951 9.3176-7.6562 14.969s-2.2736 13.14 1 19.688c3.6539 7.3078 8.8423 11.172 10.312 13.406 0.17874 0.27157 0.17396 0.26939 0.25 0.40625-0.18674 0.24034-0.43163 0.55549-1.2188 1.25-6.8478 6.0422-11.417 11.708-12.625 18.938s2.3211 13.818 6.0938 18.062l0.1875 0.21875c-0.10788 0.0824-0.0738 0.071-0.1875 0.15625-4.2487 3.1865-8.4317 4.4812-10.969 11.719-1.2686 3.6188-0.42287 8.2122 1.0625 10.969s3.2445 4.5883 5.3125 6.6562c2.6238 2.6238 4.2788 4.725 5.1875 5.9375-0.0401 0.0268-0.0198 0.0347-0.0625 0.0625-4.6441 3.0288-8.2978 5.8868-11.031 9.8125s-4.0057 9.6116-2.875 14.25c0.59011 2.4209 1.4853 4.4968 2.5625 6.375-2.0374-0.72603-4.2925-1.2812-7.0625-1.2812-4.8351 0-9.6435 4.1571-11.25 7.2188-3.2871-2.4804-7.7244-4.7207-13.031-4.3125-4.4232 0.34024-8.8998 2.7062-11.406 5.625-2.3251 2.7077-3.2416 5.2377-3.875 7.125-1.1376-0.2909-1.3875-0.2997-3.4688-1.0938-3.7444-1.4286-8.3656-3.817-15.156-3.0625-5.4763 0.60847-8.6652 3.8715-10.781 6.5312-1.8448 2.3188-3.0751 4.6577-4.125 6.9062-1.5199-0.63511-2.9646-1.3259-4.75-1.7812-2.6762-0.68248-6.0857-2.0611-11.344 1.0938-3.206 1.9236-4.2262 4.1555-4.9688 5.8438s-1.1037 3.1561-1.4062 4.625c-0.45058 2.1877-0.59179 4.3342-0.75 6.4688-0.59206-0.12032-1.1078-0.31076-1.7188-0.40625-2.3759-0.37134-4.5643-1.1743-9.0625 0.625-4.184 1.6736-5.464 4.464-6.2812 6.25s-1.1649 3.2803-1.4688 4.7812c-0.60763 3.0018-0.85501 6.0304-1 8.9688-0.13341 2.7037-0.0384 3.1806-0.0313 5.2188-3.8985 2.0499-8.5127 4.4595-11.219 5.8125-4.1917 2.0958-6.8548 8.2389-6.625 11.75s1.3325 5.5964 2.2812 7.5c1.7924 3.5963 3.6991 6.7407 3.6562 6.4375 0.0577 0.2082 0.13146 0.438 0.1875 0.78125 0.15226 0.93266 0.35625 2.3384 0.59375 4.0312 0.47501 3.3857 1.14 7.9191 2.1562 13.031 2.0325 10.224 5.4045 22.786 12.594 33.781 6.768 10.351 15.149 18.764 23.469 24.75s15.978 10.242 25.219 9.5312c6.4686-0.49758 10.135-3.8109 13.688-7.125s6.7993-7.2595 9.875-11.438c6.1514-8.356 11.424-17.442 14.25-23.094 5.9778-11.956 18.128-41.203 40.938-43.375 13.476-1.2834 30.585 0.51637 44.969 3.1875s27.228 6.7314 28.781 7.4375c4.6438 2.1108 9.3647 3.7298 12.031 5.125 0.66663 0.3488 0.61454 0.36481 0.9375 0.59375 5e-3 4.341 1.1271 9.1502 4.0938 13.156 3.5628 4.8112 8.8808 8.1154 15.656 10.656 2.19 0.82123 3.7065 2.904 5.25 6.625 0.77174 1.8605 1.4135 3.9168 2.1562 6.0312s0.18432 4.4429 5.2188 8.2188c4.4298 3.3224 7.7528 2.5545 10.156 2.3125s4.4848-0.70929 6.625-1.1562c4.2803-0.89392 8.6643-1.6646 11.844-1.4375 5.9491 0.42494 10.966-0.37614 14.938-1.7812s6.6199-2.8821 11.062-4.4688c6.8596-2.4498 12.587-6.4549 15.469-13.156 1.441-3.3507 1.8935-7.711 0.40625-11.688-0.42359-1.1326-0.99618-2.1815-1.6562-3.1562 0.89003 0.25629 1.7912 0.49695 2.6875 0.625 6.7331 0.96188 18.412 1.1419 30.688 1.4062s24.887 0.50331 28.5 0.78125c3.6672 0.28209 7.9061 1.2327 12.219 2.1562s8.5319 2.0546 13.969 1.375c3.1021-0.38776 6.8858-1.9319 9.2188-5.0938 1.5228-2.0638 2.0177-4.1488 2.1875-6.0625 1.7928-1.5153 4.4367-4.1168 4.1875-9.4062-0.1366-2.8998-1.6681-5.6572-3.25-7.2812s-3.1273-2.4767-4.6562-3.1562c0.26204 0.11646-2.1496-1.3385-4.6562-3.2812s-5.5303-4.4238-8.6562-6.9062-6.3246-4.9735-9.5312-7.0312c-3.1109-1.9963-5.6431-4.151-11.281-4.2812 1.5764-9.8693 4.2416-24.449 9.1875-37.938 4.7016-12.823 4.1541-25.38-3.0312-34.031-4.2482-5.1148-10.576-7.7811-17.406-8.125-0.40147-3.632-1.179-7.2935-2.25-10.969-2.5771-8.8443-6.8185-17.968-11.687-26.531s-10.358-16.498-15.719-22.75c-1.4537-1.6954-2.894-3.2471-4.3438-4.6875 2.8607-4.2011 4.5362-9.0195 4.9688-13.719 0.84116-9.1378-1.5986-18.103-5.0312-26.469s-7.9989-16.108-12.562-22.344c-2.2818-3.118-4.5507-5.8366-6.8125-8.125-1.5142-1.5321-3.051-2.8451-4.8438-4.0312 0.86203 0.2878 1.3111 0.32576 2.2812 0.71875 6.535 2.6471 15.122 6.3978 25.281 7.2812 10.181 0.88529 21.583-0.9823 32.375-3s21.075-4.3305 25.969-4.9062c3.9616-0.46607 7.7264 0.40132 12.406 1.9062s10.102 3.875 17.188 3.875c8.7932 0 14.896-4.9663 19.938-9.5s9.474-9.4491 13.375-12.75c4.8858-4.1342 9.0824-8.0494 12.406-12.406s5.9688-9.5583 5.9688-15.594c0-5.7409 0.81958-28.737 2.0312-37.219 1.1891-8.3237-3.821-17.531-11.5-21s-16.627-3.097-26.906-0.21875c-6.1916 1.7336-19.932 1.7684-32.469 0.15625s-25.176-5.2396-27.656-6.5625c-9.5862-5.1126-34.936-18.266-42.062-21.969l0.59375-4.875a9.5223 9.5223 0 0 0 -3.1562 -8.2812l0.0313-0.75a9.5223 9.5223 0 0 0 3.5938 -14.094s-4.2176-6.166-11.906-11.344c1.1628-1.2192 2.1522-2.6462 2.5625-4.1562 0.76476-2.8146 0.21665-4.8091-0.21875-6.0938-0.8708-2.5693-1.78-3.4977-2.6562-4.5625-1.7526-2.1296-3.7162-3.9083-6.0625-5.8438-4.6927-3.8708-10.45-7.8757-16.344-10.469-6.3541-2.7958-12.854-3.4456-18.406-3.3438z"
       fill="#fff"
       id="path6" />
    <path
       d="m336.43 319.51s-30.714-8.5714-40.714-4.2857-29.286 18.571-35.714 23.571-12.143 19.286-10 25.714 15 22.143 15.714 28.571 3.5714 24.286-2.8572 30.714-3.5714 18.571 0.71429 23.571 10.714 5 5 15-10.714 17.143-6.4286 25.714 19.286 15.714 7.1428 26.429-11.429 17.143-5.7143 23.571 7.1429 7.8571-1.4286 14.286-10.714 7.8571-3.5714 15 13.742 14.081 3.5714 20.714c-16.429 10.714-10.714 16.429 2.8571 29.286 9.3481 8.8561 0.71429 12.143-6.4286 10s-14.286-8.5714-20-8.5714-2.1429 12.857-7.8571 12.857-6.4286-10.714-15.714-10-5.7143 12.857-12.143 13.571-15-5.7143-21.429-5-10.714 17.143-10.714 17.143-12.857-7.8571-16.429-5.7143-2.8571 21.429-2.8571 21.429-12.857-5-16.429-3.5714-2.8571 22.143-2.8571 22.143-12.143 6.4286-16.429 8.5714 1.4286 7.1428 2.8571 10.714 3.5714 34.286 15.714 52.857 30.714 30.714 40 30 25-26.429 30-36.429 18.571-45.714 48.571-48.571 70.714 7.8572 78.571 11.429 19.286 6.4286 18.571 12.857 2.1429 12.143 13.571 16.429 12.143 20 15 22.143 13.571-2.8572 23.571-2.1429 12.143-2.1429 22.143-5.7143 14.286-12.143 6.4286-16.429-22.143-17.857-22.143-17.857c8.2143-1.7857 26.429 0 32.857-5 0 0-5.7143 10 4.2857 11.429s49.286 1.4286 58.571 2.1429 18.571 4.2857 24.286 3.5714 2.1429-6.4286 2.1429-6.4286 9.2857-3.5714 2.8571-6.4286-24.286-20.714-30.714-20.714h-10.714s3.5714-29.286 11.429-50.714-4.3127-35.198-22.143-27.5c8.3987-19.431-26.429-73.214-38.571-75.357 27.857-12.857-5.7143-64.286-15.714-68.571s-14.286-12.857-14.286-12.857 2.8572-2.8572 10.714-5.7143 22.143 8.5714 38.571 10 44.286-6.4286 56.429-7.8571 21.429 5.7143 30.714 5.7143 17.857-12.143 27.143-20 15-14.286 15-20.714 0.71429-28.571 2.1429-38.571-8.5714-15.714-26.429-10.714-56.429-1.4286-67.143-7.1428-47.857-25-47.857-25l1.4286-11.429-3.5714-0.71429 0.71429-14.286 5-1.4286s-10.714-15-27.143-14.286-30 5.7143-31.429 19.286c-10.714-24.286-55-24.286-60.714-0.71428z"
       fill="#217821"
       id="path8" />
    <path
       d="m396.79 319.86s-12.143-13.929-21.071-15.714-22.143-0.71429-28.214 6.7857 8.2143 27.857 8.2143 27.857l33.393-12.143 6.9643 0.89285s1.4286-3.5714 0.71428-7.6786zm57.027 24.138s-13.979 2.2809-19.362 6.1741c-7.816 5.653-31.158 6.7068-35.451 9.2321s45.708 9.0785 56.062 10.594 54.312 18.688 54.312 18.688-82.32-14.144-90.906-15.406-30.312-3.2812-30.312-3.2812-19.463 8.5861-26.281 9.3438-20.196 6.8352-22.469 13.906-3.2689 21.969 14.156 21.969 102.26-1.2735 112.11 0.24175 48.479 12.379 52.772 15.157 29.804 15.132 29.804 15.132 28.04-3.277 33.344-6.8125 11.604-17.176 10.594-24.5 0.28125-36.344 0.28125-36.344l-12.906-5.0625-31.312 4.8125-40.406-5.8125zm67.625 50.875s-2.7616 2.2389-0.53125 5.3438c1.0164 1.4149 4.9732 1.6071 4.9732 1.6071l10.183 0.89286s-1.8616 2.7634-5.7902 2.942c-2.4 0.1091-6-0.89732-6-0.89732s-6.5982-1.1384-7.4911-3.6384 4.6562-6.25 4.6562-6.25zm-97.688-92.156c-5 1.7857-8.5714 5.1786-10.893 10.179s3.9286 12.679 3.9286 12.679l38.75-9.2857s-7.3214-11.071-8.3929-11.071-23.393-2.5-23.393-2.5zm-12.321 190.18-22.143-4.8214s-8.5714 3.75-11.25 7.5-18.929 29.643-18.929 29.643-11.25 5-14.107 5.5357-8.9286-1.25-7.8571-5c-6.0714 0.17857-13.75-0.53572-12.5-6.25-6.0714 1.7857-9.4643 13.036-9.2857 15s14.107 19.286 31.25 16.071 38.036-11.964 42.679-24.464c2.6786-6.9643 6.0233-11.696 6.6071-14.107 0.90118-3.7219 19.79-12.734 20.536-11.25zm-50.536 6.4286 5.3571 4.6428s-8.7332 5.7665-15.893 11.964c-1.7985 1.5568-8.2143 0.17857-6.0714-3.75s16.607-12.857 16.607-12.857zm-16.786-5s7.5 1.9643 6.9643 3.0357-5.6453 3.7121-8.2143 5.8929c-2.4386 2.0701-4.6428 6.6071-6.7857 6.7857s-6.4286-2.1428-4.2857-5.5357 12.321-10.179 12.321-10.179zm72.321-22.5c6.25 2.5 20.714 13.75 20.714 13.75s15.536 31.786 15.536 35.536-6.0714 13.929-11.429 15.357-42.143-1.9643-42.143-1.9643l2.6786-15.536 16.964-11.786s5.3571-7.3214 5.3571-10.357-3.0357-18.929-3.0357-18.929zm35.603 78.486c-15.657 12.122-40.908 8.5922-65.656 2.5312-11.617 19.698-47.455 12.119-55.031 9.5938-2.2728 30.557 14.9 67.435 21.719 67.688 38.565-4.8916 17.22-9.6952-0.53125 20.688 0 0 2.5481 25.008 7.0938 24.25s3.7625 8.5964 3.7625 8.5964 1.2687 17.173 1.2687 21.466 19.461 11.109 29.562 9.5938 20.188-6.3125 20.188-6.3125c3.5788-9.0301 7.3329-23.462 4.5625-6.5625 0 0 14.382 1.2576 19.938 0.5s27.53-9.8444 33.844-22.219 7.8438-62.125 7.8438-62.125c3.7881-10.354-10.885-56.828-28.562-67.688zm36.883 68.189s8.0812-0.50507 11.364 1.5152 6.566 18.688 3.7881 26.769-10.102 41.669-10.102 41.669-8.8388 1.5152-13.89 2.2728-0.25254-10.102 1.7678-13.132 13.132-31.062 12.122-40.911-8.8388-17.678-8.8388-17.678zm-115.66 110.61s11.364 3.5355 17.173 3.7881 21.971-8.0812 21.971-8.0812l22.223 14.647-1.2627 8.8388-25.254 11.617-27.527 2.0203s1.0102-3.0305 1.2627-5.5558 3.283-4.0406 2.7779-6.8185-11.364-20.456-11.364-20.456zm124.5-30.305s-14.142 5.5558-20.203 8.0812-6.566 5.0508-3.5355 6.0609 22.476-1.5152 28.032-0.25254 24.749 18.94 24.749 18.94l6.3135-2.7779-0.50508-5.3033 3.5355-3.7881-28.789-21.213zm-317.08-67.867-8.2009 15.589s-6.2846-3.2947-9.0625-5.0625-9.8699 1.0244-10.375 4.8125 2.0363 15.394 1.5312 16.656-14.917-4.7965-19.21-3.0287c-1.4011 0.57692-1.25 19.714-2.7652 21.229s-17.675 10.596-17.675 10.596 0.74497 6.0824 6.092 11.216c10.937 10.499 12.777 28.544 17.402 33.488 7.1542 7.6476 9.4367 22.804 18.151 31.028 3.9214 3.7009 11.133 7.0019 14.411 7.3471 4.7982 0.50508 10.599-3.7878 18.427-20.455s14.666-33.839 24.01-41.92 32.556-25.756 45.688-28.281c0-1.0102-14.394-35.11-15.656-36.625s-16.907-8.8125-19.938-8.8125-11.622 13.103-11.875 18.406c-0.23473 4.9292-10.918-0.59846-15.469-0.59375l0.8125-0.40625 6.8438-13.375s-0.77951-4.7998-4.0625-6.0625-19.08-5.7455-19.08-5.7455zm13.674 26.496c-3.1216 4.9071-4.3134 30.268-5.9375 30.5-1.7678 0.25254-7.8496-3.0102-10.375-2s-3.2812 39.375-3.2812 39.375-1.2824 6.0522-2.7812 12.812l-2.5312-17.844s-13.862-23.001-12.094-26.031 18.938-10.844 18.938-10.844 2.766-17.425 4.2812-18.688c1.2544-1.0453 10.229-5.5223 13.781-7.2812zm154.66-373.8c-4.8395 1.7715-12.597-6.5497-9.5964-12.122 1.7678-3.283 20.708-11.112 33.335-6.0609 8.5863 7.0711 7.5761 16.162 2.0203 15.152s-15.269-0.80929-25.759 3.0305zm52.778-8.4168c-3.9995 4.7994 0 13.571 2.1429 14.286s18.929 0.71428 25.714 1.0714 12.5 2.5 15 1.4286-10.714-12.143-19.643-16.071-21.681-2.5548-23.214-0.71429z"
       fill="#3cb93c"
       id="path10" />
    <path
       d="m176.79 687.72 10 2.1429-7.1428-3.75zm43.929-47.321c2.8571 0.35714 17.321 3.9286 17.321 3.9286l-12.321-5.5357zm-25.357 16.25c-0.89285 1.9643 1.7857 2.5 3.9286 3.2143s11.607 2.5 11.607 2.5zm252.32-107.14s21.218 29.976 26.964 47.143c4.4947 13.428 5.3571 42.143 5.3571 42.143l1.0714-30.357s-7.8571-31.429-13.929-40-19.464-18.929-19.464-18.929zm-85.714-245.36c5.5357 1.0714 18.036 5.8928 21.786 8.0357s13.571 10 13.571 10l-8.5714-13.929zm90.332 40.35-5.8084 2.7779s38.197 18.579 40.406 19.951c7.3236 4.5457 23.234 10.354 29.294 11.112s30.052 1.0102 31.82 0.75761-28.032-3.5355-28.032-3.5355zm84.853 49.245c3.283 2.2728 1.078 3.3866-1.1364 2.1466-3.1567-1.7678-11.112-1.894-12.374-2.3991-2.0203 0.25254 10.03-2.1571 13.511 0.25253zm32.325-16.668c9.3439-0.25254 14.019 1.4002 15.91 2.2728 3.283 1.5152 3.7881 5.8084 3.0305 10.354-0.12455 0.74731-2.2728 21.466-2.2728 28.032s3.283 13.637 3.283 13.637l4.0406-53.286-14.9-5.8084zm-142.15-73.463c11.047 2.9308 19.205 7.5119 26.964 12.321l2.1428-0.35714-16.607-13.036zm-1.25 173.21c1.7857 2.8571 11.741 16.388 16.25 25.357 4.2306 8.4155 10 26.429 10 26.429l-3.5714-26.429zm-48.022 148.49c4.7982 0.50508 13.414-0.55758 19.445 6.3135 19.147 21.811 21.87 47.556 18.435 72.478l6.0609-18.183s-4.5457-40.406-12.879-50.76-27.022-12.122-27.022-12.122zm109.73-6.0609c0.50508-0.12627 8.46 2.1466 10.733 5.3033s5.9346 8.2075 3.7881 15.784-8.9651 31.946-10.228 37.628 0 14.268 0 14.268l15.152-60.104-10.733-14.268z"
       fill="#d7f4d7"
       id="path12" />
    <path
       d="m450.02 316.72s-27.779 0.25254-36.618 12.627 13.385 12.627 13.385 12.627l22.476-7.3236z"
       fill="#fff"
       id="path14" />
    <path
       d="m335.39 323.29-0.0226-6e-3 -0.0643-0.018-0.25183-0.0696-0.96519-0.26053-4e-5 -1e-5c-1.1754-0.3127-2.3576-0.61339-3.5456-0.90522l-4e-5 -1e-5c-3.7917-0.93096-7.5969-1.7632-11.416-2.4614h-2e-5c-4.3847-0.79662-8.7231-1.4455-13.012-1.6533h-4e-5c-3.5201-0.0652-6.6791-0.27959-8.8927 0.80443-2.8151 1.185-5.5804 2.8012-8.4279 4.5149-3.4262 2.0735-6.7936 4.2953-10.145 6.587l-3e-5 3e-5c-5.5755 3.8149-11.05 7.7599-16.377 11.879-3.1795 2.3192-5.2603 6.4116-7.0845 10.742-0.85597 2.1828-1.525 4.3742-1.8374 6.5498-0.18896 1.7877-0.35102 3.3292 0.0803 4.3678 0.51688 1.698 1.6758 3.4754 2.8954 5.5387l1e-5 1e-5 2e-5 2e-5c1.6023 2.6346 3.337 5.2587 5.0667 7.9571l1e-5 1e-5 1e-5 2e-5c1.6951 2.6386 3.4195 5.3594 4.9831 8.2633l2e-5 3e-5c1.1284 1.9262 2.3898 4.4035 2.84 7.5653 0.23283 2.1525 0.52151 4.3642 0.74428 6.6474 0.29185 2.981 0.48962 6.0169 0.48364 9.098 5e-3 3.0792-0.21446 6.2949-0.9633 9.5335l-1e-5 2e-5 -1e-5 3e-5c-0.56823 2.7624-1.8167 5.7365-4.1936 8.2469-1.0952 1.0522-1.8813 2.5462-2.3345 4.1522v2e-5l-1e-5 1e-5c-0.4697 1.6642-0.54503 3.5201-0.37676 5.4086 0.41327 3.5574 1.4493 7.0341 3.5495 9.4039 0.70152 0.85982 1.7275 1.6668 2.8845 2.5822 0.99093 0.72099 2.2533 1.7014 3.4679 3.2073 1.2657 1.7389 1.822 3.7917 1.6396 5.8328-0.3646 2.9472-1.5096 5.327-2.6717 7.1996l-2e-5 3e-5c-2.5635 4.503-5.3 8.568-6.7528 12.825-0.57802 1.6993-0.95987 3.3801-0.90885 4.9515v1e-5c0.0126 1.6163 0.48565 3.2925 1.2492 4.8571 0.8676 1.8461 2.4466 3.5943 4.1391 5.5509 1.733 1.939 3.6745 4.0138 5.3634 6.5511 1.5911 2.2463 2.7215 5.232 2.5094 8.6431-0.21339 1.8293-0.82987 3.4837-1.6987 4.8869l-3e-5 5e-5c-1.1384 1.8433-2.537 3.3464-3.9804 4.5885-4.0086 3.7804-8.1329 7.3492-8.5824 11.55l-1e-5 3e-5c-0.21482 1.1699-0.0501 2.4647 0.4143 3.6256l1e-5 1e-5c0.51257 1.3554 1.5087 2.6706 2.6634 4.0159 1.1336 1.2716 2.4101 2.6522 3.5932 4.3166 0.86319 1.0286 1.6421 2.6588 1.7968 4.8558-0.18657 2.3242-1.103 4.0384-2.172 5.0758-1.6457 1.8598-3.4629 3.253-5.128 4.4696l-4e-5 3e-5c-1.7894 1.3393-3.5144 2.5623-4.9988 3.8805-0.89818 0.9231-1.6556 1.4922-1.6736 1.9257-0.15839-0.0432 0.0509 0.37852 0.24522 0.92895 0.60293 1.2224 1.8104 2.3932 3.1377 3.7784 1.7197 1.7247 3.498 3.521 5.1667 5.5286 1.4254 1.6703 2.8264 3.6632 3.7578 6.0994 0.84494 2.2134 0.91963 4.7843-0.0249 7.2443-1.3669 2.979-3.6214 5.0035-5.842 6.3332-3.045 2.0374-5.9309 3.9684-7.6304 6.5052-0.52265 0.77812-0.93183 1.5408-1.0625 2.2569v2e-5c-0.14339 0.61445-0.11521 1.3164 0.0433 1.9984 0.35742 1.8958 1.9 3.7495 3.5656 5.7856 2.4827 2.8771 5.3613 5.5443 8.2732 8.3244 1.821 1.5852 3.7615 3.8029 4.7001 6.9195 0.56648 2.1767-0.0485 4.5124-1.823 6.2641-1.8493 1.479-3.8828 2.0652-5.6392 2.1236-2.1778 0.1773-4.3335-0.0888-6.3465-0.70608l-3e-5 -1e-5c-4.1803-1.3051-7.7208-3.4641-11.051-5.3419l-2e-5 -1e-5c-1.5889-0.87857-3.1092-1.7081-4.6299-2.3175-1.3046-0.49494-2.4992-0.89293-3.5408-0.8598-0.12303 0.0204-0.21778 0.013-0.1414 5e-3 -0.037-0.0323-0.12108 0.1661-0.30211 0.4651-0.46339 0.87689-0.60293 2.19-0.89849 3.7436-0.21337 1.4476-0.49089 3.2078-1.3124 5.0848-0.33609 0.80888-0.94563 1.6622-1.8784 2.4299-1.0581 0.7537-2.2138 1.1051-3.3244 1.0816-2.2752-0.12462-4.1289-1.0967-5.3694-2.412-1.3429-1.3493-2.2903-2.7303-3.1654-3.8551l-1e-5 -2e-5c-0.99093-1.2129-1.9176-2.2882-2.9566-2.8932l-3e-5 -1e-5c-1.0916-0.72112-2.5685-0.99374-4.0278-0.90245-1.2895 0.12567-2.5578 0.59214-3.1866 1.4304-0.75792 0.78842-1.2168 2.1106-1.7668 3.6141l-1e-5 2e-5c-0.45172 1.4029-0.92468 3.1197-1.9104 4.9098-1.0215 1.8292-2.8671 3.1869-5.1995 3.554-2.2146 0.20552-4.2695-0.13989-6.0793-0.66638-2.0537-0.56898-3.9618-1.3068-5.7843-2.0107-1.8384-0.70254-3.5928-1.3903-5.323-1.8606-1.5472-0.39588-2.9919-0.69404-4.2488-0.52463-0.76647-0.11428-1.6842 0.94121-2.7651 2.0661l-2e-5 3e-5c-1.2289 1.5091-2.1814 3.3584-3.0824 5.3262-0.79822 1.7688-1.4874 3.6041-2.102 5.4796-0.19621 0.59982-0.38299 1.1994-0.5577 1.7993l-2e-5 4e-5c-0.0487 0.16732-0.096 0.3325-0.14114 0.49567l-5e-4 2.5e-4 -1.7326 0.86417-0.0177 0.0403c-2e-3 5e-3 -4e-3 0.01-6e-3 0.0147-2.8406-0.97195-5.6761-1.9463-8.5066-2.923-1.7002-0.78427-3.3536-1.4902-5.0046-1.9026l-3e-5 -1e-5c-0.67977-0.16468-1.2813-0.29436-1.7967-0.29213-0.39187 0.0517-0.60421 0.0105-0.50587 0.0349 0.0958-0.20504 0.0723 0.0513-0.2245 0.47947-0.28873 0.62238-0.47488 1.3903-0.66439 2.2475l-1e-5 4e-5c-0.46692 2.1964-0.65291 4.5202-0.79139 6.9124-0.12448 2.2306-0.16881 4.4752-0.16214 6.729v4e-5c2e-3 0.72793 0.0101 1.4543 0.0251 2.179l1e-5 4e-5c4e-3 0.20254 9e-3 0.40381 0.0144 0.60382l-1.5264 1.2465-1.9e-4 1.6e-4 -0.29613 0.25632-0.10671 0.0924-0.33431 0.19578-3.3e-4 1.9e-4c-0.31151 0.18254-0.6232 0.36505-0.93505 0.54751l-0.40267-0.15321-1.4718-0.5393c-1.5554-0.55516-3.1168-1.0729-4.687-1.5369l-2e-5 -1e-5c-1.7578-0.51626-3.4824-0.97552-5.189-1.2446h-4e-5c-1.3947-0.1184-2.4481-0.41779-2.9054-0.097 0.3029-0.33904 0.3643-0.13226 0.0334 0.22968-0.29016 0.59347-0.4662 1.3551-0.65629 2.217-0.47975 2.2924-0.65782 4.7162-0.79534 7.2087-0.12608 2.3727-0.16996 4.7592-0.1637 7.1548 2e-3 0.77987 0.01 1.5584 0.0248 2.3356 4e-3 0.21773 9e-3 0.43436 0.0144 0.64987l-0.5663 1.1505v5e-5l-2e-3 0.0517-7.3e-4 0.0187c-2.4011 1.4845-4.8003 2.9657-7.1976 4.4437l-4e-5 2e-5c-3.261 1.7004-6.5333 3.4219-9.8612 5.0745l-1e-5 1e-5c-0.11896 0.081-0.21893 0.13171-0.17746 0.12505-0.045 2e-3 -0.0333 0.18476-0.0465 0.46083 2e-3 0.86493 0.51035 1.8873 1.0582 3.0871 0.64903 1.32 1.4471 2.6334 2.2639 4.0062 0.64498 1.0612 1.3974 2.252 1.9852 3.6912 0.41121 1.1057 0.54539 2.0742 0.64559 2.824l1e-5 2e-5c0.23296 1.4516 0.4211 2.8855 0.61491 4.294 0.57556 4.1744 1.197 8.322 2.0004 12.415 2.0911 10.542 5.1363 20.969 10.881 29.763 5.477 8.4232 12.418 15.924 20.541 21.801 3.1915 2.3035 6.5323 4.3553 10.086 5.8197 2.6002 1.0351 5.2023 1.8955 7.6516 1.6714 0.93018-0.0322 1.9397-0.51943 2.9943-1.109l2e-5 -1e-5c1.3585-0.79579 2.6228-1.848 3.865-2.993 3.1515-2.9168 5.8916-6.3364 8.5236-9.884 2.7957-3.7769 5.3934-7.7116 7.8527-11.74l1e-5 -1e-5c1.9389-3.1784 3.7977-6.3866 5.4547-9.6787 1.8712-3.7147 3.5633-7.5885 5.5172-11.401 0.38892-0.75898 0.78433-1.5154 1.1868-2.2687 2.4705-4.674 5.213-9.229 8.3643-13.521 4.0404-5.5118 8.8008-10.608 14.467-14.607 5.9717-4.2087 12.993-6.9938 20.322-7.713 8.048-0.77695 16.132-0.5991 24.124 0.0354h7e-5c8.04 0.63571 16.029 1.7526 23.943 3.2083 6.6325 1.2192 13.231 2.6714 19.757 4.4293 2.3589 0.6352 4.7184 1.3128 7.0627 2.0749l6e-5 2e-5c1.4984 0.48412 3.049 1.0047 4.5898 1.6984l7e-5 3e-5c3.9988 1.8093 8.3853 3.1928 12.601 5.3808 1.7514 0.88665 3.5752 2.0154 5.1 3.6783 1.3356 1.453 2.1316 3.4663 1.9579 5.6455-0.28514 2.7532 0.29403 5.6269 1.893 7.7042 2.3133 3.2352 6.3624 5.1431 10.506 6.7546l4e-5 1e-5c3.0005 1.1342 5.5962 3.1003 7.5745 5.5319 1.8384 2.267 3.1857 4.8088 4.2455 7.3751 0.92761 2.2326 1.6393 4.4666 2.3928 6.6018 0.28374 0.79239 0.54485 1.5252 0.86214 2.1592l4e-5 6e-5c0.28302 0.44967 0.37505 0.74697 0.42275 0.69391-0.0388 0.0345 0.16307 0.0383 0.49184 0.11816 0.45923 0.0633 1.0104 0.0228 1.6373-0.0326 1.7351-0.17079 3.53-0.58977 5.4204-0.98289 4.7717-1.022 9.7933-2.0037 15.002-1.6681 3.5455 0.23459 7.0855-7e-3 10.267-1.1606 3.5918-1.27 7.1557-3.0759 11.058-4.481 3.7735-1.4726 7.4814-3.6013 8.7166-6.852 0.4195-1.0589 0.56999-2.235 0.19121-3.0911-0.32504-1.0918-1.4858-2.0135-2.7852-2.7861-2.558-1.3975-4.8572-3.0775-7.0433-4.7557-2.5216-1.9279-4.9559-3.9446-7.3406-5.9952-1.9693-1.693-3.9101-3.4165-5.8258-5.1652l-6e-5 -4e-5c-0.58432-0.53337-1.1672-1.07-1.7478-1.6108l-5e-5 -5e-5 -0.47721-0.44624 0.37295-1.9094-0.0254-0.0409c-3e-3 -5e-3 -6e-3 -0.01-9e-3 -0.0147 2.904-1.1786 5.7716-1.9322 8.5169-2.6657 3.1674-0.17829 6.299-0.27825 9.3844-0.47821 3.0072-0.19878 5.9528-0.45164 8.7693-1.0416h8e-5c2.7951-0.0675 5.4515-0.15003 7.4127-0.87945l0.10086 0.12355 2e-4 2.4e-4 0.27891 0.34069 1.0375 1.2765 1e-4 1.2e-4c-0.15791 0.32093-0.3029 0.65263-0.43648 0.99282-0.3846 1.0095-0.66575 2.0005-0.71383 2.9408-0.0154 0.9727 0.11042 1.9063 0.57135 2.3894 0.48658 0.86025 1.928 1.2253 3.4669 1.544 1.5612 0.22198 3.1813 0.33648 4.8454 0.44733 2.3209 0.15252 4.6549 0.25779 6.9995 0.34888 5.8031 0.22523 11.62 0.3533 17.448 0.47105h7e-5c5.7792 0.11665 11.566 0.21039 17.36 0.33873 3.8708 0.0844 7.8048 0.12376 11.784 0.4214h7e-5c4.7753 0.36987 9.346 1.3984 13.787 2.3418 3.6408 0.72199 7.0176 1.6487 10.034 1.1988 0.72168-0.21986 1.2849-0.25025 1.1558-0.37985 0.0695 0.17917 0.0524 0.0122 0.0966-0.25159-0.11848-1.3911-0.23641-2.7832-0.35378-4.1762l0.0733-0.11873 0.19817-0.32091 1.6e-4 -2.6e-4 0.73365-1.1878c0.28632-0.12328 0.57035-0.25507 0.85184-0.39464 0.78807-0.40207 1.4914-0.79188 2.0264-1.25 0.34052-0.57424 0.72366-0.63296 0.42045-0.14806l-3e-5 4e-5c0.10409 0.3562 0.0962 0.47934 0.12044 0.42085-0.10613-0.16402-0.48193-0.3209-0.99275-0.58356-1.2569-0.56863-2.3282-1.2563-3.2769-1.9129-1.332-0.90703-2.5969-1.8594-3.8257-2.8094l-3e-5 -3e-5c-2.9934-2.3124-5.8819-4.6925-8.784-6.989-2.8358-2.2401-5.6346-4.4273-8.5642-6.2952-1.1481-0.72791-2.2612-1.3926-3.3818-1.8797-0.85393-0.32481-1.5007-0.61919-1.9231-0.56084l-7.7459 0.0132-2.1806 4e-3 -0.58033 9.9e-4 -6.2e-4 -6.2e-4 -1.3622-1.3708-6.2e-4 -6.2e-4 -0.22309-0.19127-2.8e-4 -2.4e-4 -0.0685-0.10391-0.19066-0.29124-0.74178-1.1326c0.0416-0.3301 0.0844-0.65867 0.12772-0.9858 0.16168-1.2207 0.33338-2.4377 0.51165-3.6514 0.61434-4.1827 1.3102-8.3526 2.0821-12.507 2.108-11.377 4.7006-22.779 8.7109-33.792 2.5817-7.7247 3.807-16.86-1.0425-22.154-1.699-2.0724-4.3166-3.4605-7.0318-3.8757-3.9938-1.1423-8.2911-0.81385-12.374 0.0829 0.41183-2.7362-8e-3 -5.9633-0.69184-9.2748-0.17336-3.4269-0.94264-6.8847-1.945-10.337-2.425-8.3074-6.2459-16.24-10.606-23.9l-4e-5 -6e-5c-4.2133-7.3733-8.9176-14.439-14.395-20.798-2.0679-2.3926-4.1795-4.6551-6.5063-6.5384-0.86567-0.6974-1.7113-1.3232-2.5703-1.7961-0.78227-1.2164-1.4456-2.3672-1.995-3.2874 2.5656-2.13 4.8414-4.8593 6.223-8.0907 1.4708-2.209 2.2355-4.9678 2.512-7.8068 0.30139-3.1979-0.074-6.5245-0.76617-9.8445l-2e-5 -6e-5c-0.77258-3.6552-1.9812-7.2534-3.4351-10.786l-3e-5 -6e-5c-2.8854-6.9921-6.6702-13.623-11.159-19.735-1.7713-2.4035-3.6124-4.6946-5.6383-6.7304-0.75983-0.76142-1.5107-1.4658-2.2844-2.0629l-2e-5 -2e-5c-0.59479-0.43931-1.0774-0.7988-1.4905-0.95189-4.6099-1.9754-8.6917-5.0243-11.948-8.7725-1.0202-1.1703-1.9717-2.4196-2.8289-3.7487-0.24218-0.37533-0.4818-0.76692-0.7142-1.1768l9e-5 -4.9e-4c0.14111-0.76846 0.28013-1.5437 0.41773-2.326l-3e-5 -7e-5 -0.0339-0.0891-1e-5 -4e-5 -0.012-0.0325c3.8294-2.5897 7.6607-5.184 11.494-7.7831l1e-4 -3e-5c3.2848-1.0582 6.4218-0.74314 8.9664-0.033 3.3783 0.8724 6.4764 2.1474 9.4252 3.3461 7.2859 2.902 14.411 5.7985 21.64 6.3594 4.3592 0.38312 8.8673 0.0557 13.447-0.44151 5.1761-0.57263 10.353-1.4498 15.548-2.4262l7e-5 -1e-5c4.9596-0.93323 9.9277-1.9769 14.933-2.9867l7e-5 -1e-5c3.8439-0.77904 7.7852-1.5981 11.873-2.0903l8e-5 -1e-5c6.254-0.67678 12.281 0.62291 17.759 2.4227 4.8469 1.492 9.219 3.3221 13.321 3.2164 1.6644 0.0525 3.4878-0.66115 5.2947-1.6263 2.1264-1.176 4.1176-2.8303 6.1323-4.6311 4.4563-4.0209 8.6214-8.7723 13.625-13.035 3.8903-3.3274 7.6284-6.6147 10.479-10.402 1.8811-2.654 3.4844-5.3538 3.3301-7.8411-9e-3 -6.0782 0.23603-12.113 0.50868-18.102 0.30734-6.8854 0.61278-13.896 1.6018-20.943 0.19209-1.6768 0.0601-3.3505-0.65126-4.5145-0.59378-1.2108-1.9131-2.2084-3.402-2.9203-5.0063-2.4883-11.661-1.1657-18.141 0.47538l-6e-5 1e-5c-5.8402 1.6157-11.761 1.9573-17.431 1.9516-6.7825 0.021-13.524-0.4992-20.18-1.3448-6.291-0.79531-12.575-1.8855-18.787-3.4004-2.5124-0.61185-5.0412-1.305-7.5578-2.1472l-7e-5 -2e-5c-1.8627-0.61465-3.8169-1.3501-5.7646-2.3734-9.2581-4.9174-18.592-9.7284-27.929-14.573l-6e-5 -3e-5 -13.949-7.2289-6e-5 -4e-5c-1.4537-0.75261-2.9075-1.505-4.3614-2.2572l-6e-5 -3e-5 -1.2015-0.62152-2.5e-4 -3.9e-4 -1.2747-1.9916-0.0775-0.0408-0.0199-0.0105c0.62197-3.7553 1.2523-7.5065 1.8834-11.257l-3.5882-0.57683c0.18551-5.9372 0.37069-11.882 0.55555-17.835l1e-5 -8e-5 5.5343-0.0451c-2.6838-1.4005-5.3687-2.7957-8.0545-4.1856-2.3268-1.7743-4.8374-3.2517-7.4839-4.2486-3.0909-1.2031-6.4068-1.8107-9.6417-1.6534h-6e-5c-7.1105 0.39276-14.096 1.2684-19.712 4.4106-2.2604 1.2544-4.2744 2.8195-5.6114 4.7293-2.6037 2.085-4.6293 4.6991-6.1163 7.3846-3.3571-4.8184-8.899-8.7494-15.149-11.251l-7e-5 -3e-5c-5.2129-2.7688-11.239-4.1077-17.26-4.1516-5.7345 0.0112-11.458 1.1176-16.127 3.8578-2.1244 1.2364-4.0318 2.7693-5.4711 4.5868-2.083 1.649-3.7723 3.6462-4.949 5.7409l-1.9089-0.46277-1.9088-0.46275c0.19026-3.5361 1.1242-6.8585 2.6795-9.7182 2.1739-2.6628 4.8218-4.8092 7.6925-6.4308 6.2148-3.4875 13.242-4.9028 20.045-4.799h3e-5c7.1525 0.0541 14.348 1.7223 20.766 5.1282 5.1651 3.5441 9.419 9.0833 11.293 16.055-0.80768-3.4835-0.69493-6.9209 0.3715-9.8542 2.2114-2.9844 5.0651-5.2649 8.131-6.8816 7.3016-3.8218 15.347-4.9519 22.918-5.191 4.3444-0.16795 8.6522 0.62468 12.62 2.2044 3.4826 1.4181 6.6893 3.3486 9.5747 5.6074 2.2699 3.5106 4.5415 7.0121 6.8149 10.504 2e-5 4e-5 1e-5 4e-5 0 5e-5 -1.4982 0.9151-2.9971 1.8283-4.4967 2.7395-0.29262 3.6293-0.58468 7.2723-0.87619 10.929l3.5527 0.846c-0.33333 3.867-0.66815 7.7335-1.0045 11.599l0.0292 0.0151 0.0845 0.0435 2e-5 1e-5 -4e-5 -1.2e-4 -0.5845-1.5493-4e-5 -1.2e-4 1.1994 0.62754 4.3526 2.2784c4.6411 2.4302 9.2814 4.8623 13.921 7.2968 9.303 4.8818 18.634 9.7467 27.918 14.733 1.4044 0.7661 3.0162 1.3634 4.7351 1.9576 2.2718 0.77503 4.6172 1.4271 7.0066 2.0236 5.9102 1.4734 11.942 2.5463 18.03 3.3478 6.4403 0.8442 12.896 1.3774 19.327 1.3834 5.451-0.0159 10.793-0.25055 15.707-1.6355l2e-5 -1e-5c6.8735-2.0684 14.992-3.2427 22.483-0.0562l3e-5 1e-5c2.5422 1.1145 4.8387 3.0348 6.3347 5.6808 1.4064 2.712 1.7608 5.6863 1.3254 8.4202-0.97368 6.6366-1.293 13.452-1.642 20.346v2e-5c-0.29768 5.9691-0.56867 11.906-0.58557 17.812-0.13765 4.5558-2.1722 8.4712-4.62 11.509-3.3816 4.3739-7.433 7.9552-11.426 11.294-4.5862 3.8432-8.7306 8.5382-13.546 12.85-2.1453 1.9354-4.4991 3.8329-7.2153 5.3587-2.3481 1.3473-5.1252 2.2969-8.149 2.3367-5.5904-0.0952-10.538-2.0391-15.078-3.5607-5.168-1.6382-10.381-2.8864-15.339-2.264-3.7644 0.42748-7.5612 1.205-11.435 1.9651l-3e-5 1e-5c-4.9809 0.98093-9.978 2.006-15.018 2.9306-5.2662 0.96696-10.585 1.8399-15.97 2.4133-4.7275 0.51066-9.5917 0.81979-14.508 0.38791-1.8006-0.17088-3.5701-0.44904-5.3115-0.81056-6.2708-1.2776-12.186-3.6362-17.875-5.9595-2.9867-1.2003-5.856-2.4026-8.7396-3.1282-2.1139-0.48922-4.0854-0.9133-5.472-0.29315l-10.065 4.0489 0.0155 0.0234 0.0438 0.0633c0.20442-0.46666 0.41285-0.9292 0.62463-1.3873l1.6e-4 -3.5e-4c0.17071 0.30242 0.35763 0.60713 0.55611 0.91617l4e-5 7e-5c0.70207 1.0927 1.4994 2.1378 2.3662 3.1361 2.7579 3.1659 6.1953 5.7492 10.016 7.3751 1.0724 0.47741 1.9472 1.0695 2.6674 1.6497 1.0204 0.79838 1.9408 1.6547 2.7931 2.5188 2.2763 2.3034 4.285 4.7951 6.1417 7.332 4.7294 6.4445 8.7177 13.451 11.77 20.862 1.5499 3.7553 2.8499 7.661 3.7095 11.708 0.78738 3.6678 1.1904 7.5183 0.84925 11.415-0.30057 3.5224-1.3469 7.0816-3.3557 10.207-2.2849 2.5139-5.5113 4.2145-9.0743 5.0063 1.2063-0.53023 2.2076-0.84078 3.0094-1.0966 1.2275 0.69378 2.3235 1.4914 3.3214 2.3114 2.6813 2.1953 5.0126 4.6759 7.166 7.1931 5.7456 6.6956 10.637 14.039 14.956 21.631l5e-5 7e-5c4.4933 7.8705 8.4657 16.18 11.061 25.028 1.0844 3.6796 1.9177 7.5336 2.1371 11.525-0.35811 2.6182-1.2178 5.4841-3.1464 8.1895 3.5173-2.3742 7.627-3.9585 11.809-3.8517l9e-5 2e-5c3.9305 0.59972 7.6112 2.593 10.222 5.6896 6.1846 7.9459 5.2422 18.772 1.9031 27.238-3.8806 10.596-6.4068 21.722-8.5104 32.962-0.76356 4.0926-1.4519 8.1982-2.0596 12.315-0.17634 1.1945-0.34559 2.3874-0.50431 3.5792-0.0425 0.31942-0.0842 0.63745-0.12434 0.95415l-0.87774-0.71122-0.22536-0.18305-0.0806-0.0659-0.12804-0.20962-1.1735-1.5011-3.2e-4 -4.2e-4 -3.3e-4 -4.2e-4 0.58029-5.4e-4h4e-5l2.1805-2e-3h8e-5c2.582-2e-3 5.164-5e-3 7.7459-7e-3h1.4e-4c1.6556 0.0617 2.9905 0.50242 3.9883 0.99973 1.4878 0.66368 2.8306 1.4532 4.0711 2.2542 3.1918 2.0492 6.1277 4.338 8.9764 6.6003 2.953 2.3405 5.8239 4.7104 8.7313 6.9586 1.1977 0.92523 2.3792 1.8183 3.5754 2.6317l6e-5 4e-5c0.90715 0.60477 1.7111 1.1445 2.4753 1.469 0.75697 0.29323 1.6566 0.81537 2.564 1.679 0.66353 0.58228 1.1499 1.5594 1.3151 2.8794-0.26088 2.369-1.2569 3.8123-2.2592 4.3036l-1e-4 5e-5c-1.0039 0.81386-2.0358 1.4154-3.0122 1.8853-0.3607 0.17846-0.7274 0.34803-1.0998 0.50796l6e-5 -3e-4c0.0797-0.37373 0.15738-0.74763 0.23276-1.1221l0.061-0.30574 0.0223-0.11337c0.63918 0.51296 1.2787 1.0253 1.9185 1.537 0.24205 1.3252-0.0116 2.8798-0.90846 4.4142l-1e-4 1.7e-4c-1.4922 1.664-3.2026 2.3637-4.5983 2.3889-4.3108 0.46405-8.2464-0.4894-11.714-1.2788-4.4937-0.9441-8.8422-1.9442-13.122-2.2566-3.7593-0.2877-7.6047-0.32565-11.517-0.41702-5.7738-0.13238-11.557-0.23053-17.35-0.35195-5.8342-0.12219-11.682-0.25575-17.541-0.4875-2.3658-0.0935-4.7444-0.20298-7.1332-0.36157-1.6846-0.10994-3.4282-0.23872-5.216-0.49015-2.2267-0.18494-4.7538-1.187-6.723-3.4532-1.3033-1.8453-1.7679-3.9002-1.5886-5.7536 0.11898-1.6167 0.5135-3.1092 1.0539-4.4455 0.18098-0.46066 0.38235-0.91874 0.60563-1.372 0.57648 0.3099 1.1562 0.61764 1.7398 0.92364l0.47326 0.24731 0.17226 0.0893 2e-4 1e-4c-1.8399 2.4733-3.9386 3.9175-5.7411 4.9658l-3e-5 2e-5c-3.2017 0.6545-6.3775 0.93573-9.4604 1.1269l-8e-5 1e-5c-3.1935 0.20339-6.3388 0.30171-9.426 0.47333-2.3537-0.64957-4.5743-1.3303-6.5769-1.6371l0.0147 6e-3 0.0407 0.0156 7e-5 3e-5 0.79783-2.3224 0.46152 0.4322c0.56606 0.52805 1.1364 1.0538 1.71 1.5783 1.881 1.7195 3.7838 3.4119 5.7116 5.0716 2.3384 2.0126 4.6976 3.9713 7.1154 5.8213l7e-5 5e-5c2.1422 1.6297 4.2262 3.1723 6.3985 4.3437l7e-5 4e-5c2.0368 1.0144 3.9499 2.8057 5.042 5.393 0.80348 2.3544 0.62279 4.754-0.2808 6.7621l-2e-5 5e-5c-2.3769 5.0591-7.0435 8.0832-11.594 9.5436-3.5218 1.2555-7.0932 3.0609-11.078 4.4784-4.0357 1.3932-8.2366 1.7208-12.251 1.4194h-4e-5c-4.3306-0.34651-8.9042 0.60118-13.656 1.5664l-8e-5 1e-5c-1.8264 0.38841-3.7918 0.83212-5.9317 1.057-0.77128 0.0907-1.6771 0.1273-2.7011 0.021h-1.3e-4c-0.77182-0.028-1.758-0.34636-2.8447-1.0619-1.0908-0.95114-1.6673-1.8343-1.8766-2.4519-0.46511-0.96209-0.79964-1.8718-1.0825-2.69-0.78937-2.234-1.4671-4.3842-2.2912-6.3513-0.96887-2.2887-2.0732-4.4282-3.5174-6.1685-1.499-1.8177-3.4052-3.2916-5.507-4.0546l-6e-5 -3e-5c-4.5125-1.5833-9.2921-4.0465-12.695-8.4166-2.3722-3.3026-3.2568-7.3183-2.8114-11.13 0.15833-0.47757-0.23724-1.2394-0.75748-1.8902-0.81959-0.98897-2.1867-1.7633-3.7296-2.614l-7e-5 -4e-5c-3.6972-1.951-8.0022-3.2985-12.354-5.2718-1.2346-0.56578-2.6193-1.0231-4.0918-1.5084l-4e-5 -1e-5c-2.2371-0.72977-4.5172-1.3857-6.8246-2.0096-6.3799-1.7243-12.851-3.1527-19.373-4.3575-7.7779-1.4353-15.603-2.5367-23.452-3.1617l-8e-5 -1e-5c-7.8123-0.61761-15.617-0.80371-23.287-0.0598l-8e-5 1e-5c-6.4236 0.60133-12.687 3.1005-18.047 6.8573-5.1433 3.5951-9.5434 8.3319-13.385 13.528-3.4693 4.7075-6.4466 9.8254-9.1455 15.128-1.8533 3.6434-3.5251 7.5123-5.4588 11.391-1.7296 3.4638-3.6393 6.7933-5.6066 10.041-2.5023 4.1367-5.165 8.2007-8.0482 12.129-2.6828 3.6708-5.6101 7.3264-9.0891 10.595l-6e-5 6e-5c-1.3655 1.2918-2.9061 2.5597-4.6954 3.6412-1.3353 0.85954-3.0599 1.5791-5.1436 1.8058-3.7193 0.20848-7.0833-0.76002-9.9268-1.9977-4.0382-1.6641-7.7292-3.8925-11.133-6.3489l-3e-5 -2e-5c-8.6842-6.2423-16.085-14.165-21.912-23.07-6.2678-9.6494-9.6058-20.68-11.742-31.552-0.84788-4.2444-1.5019-8.4888-2.0978-12.703-0.20296-1.4311-0.39046-2.825-0.61293-4.1736-0.18096-0.90253-0.21435-1.4971-0.3423-1.6994-0.29806-0.80671-0.92728-1.7383-1.6169-2.9165l-3e-5 -4e-5c-0.81429-1.347-1.6851-2.7807-2.4828-4.3682-0.70555-1.2677-1.4036-2.9712-1.6266-5.1358-0.10668-0.90417 0.0618-2.0008 0.5878-3.2034 0.66911-1.2275 1.5773-2.0937 2.6025-2.57l8e-5 -4e-5c3.2449-1.6259 6.4774-3.3425 9.7428-5.0604l5.7321-1.9777c-7.9e-4 -4e-3 -2e-3 -9e-3 -2e-3 -0.0133l-2e-5 -7e-5c-2e-3 -0.0122-5e-3 -0.0243-7e-3 -0.0365l-1e-5 -3e-5c-0.29856 0.44651-0.597 0.89397-0.89535 1.3424l-2.1e-4 3.3e-4c-7e-3 -0.23033-0.0126-0.45898-0.0178-0.68595v-8e-5c-0.0185-0.81036-0.0297-1.6188-0.0349-2.4254-0.0165-2.4732 0.0205-4.9619 0.14316-7.4617 0.11849-2.5771 0.3216-5.2763 0.87111-8.0377 0.18632-1.0118 0.49016-2.1768 1.0404-3.4285 0.13587-0.83982 1.0678-1.9957 2.9512-3.0786 2.513-0.79033 4.546-0.60734 5.8349-0.24919l4e-5 1e-5c2.0742 0.32848 4.0356 0.8334 5.898 1.3814 1.6887 0.49256 3.3509 1.0362 4.9893 1.6145l5e-5 2e-5c0.52091 0.18375 1.0428 0.37233 1.5652 0.56683l0.44066 0.16575-7.9e-4 6.6e-4 -1.1232 0.92557-0.4018 0.33187-0.16112 0.0997-0.44711 0.27696c-0.76628 0.48441-1.5324 0.96986-2.2985 1.4564-7e-3 -0.21649-0.0127-0.43113-0.0179-0.64392-0.0186-0.7615-0.0297-1.5209-0.0349-2.278-0.0165-2.34 0.0218-4.6953 0.14409-7.0612 0.12145-2.4939 0.33468-5.1012 0.87373-7.7655l1e-5 -5e-5c0.19656-1.025 0.50092-2.1747 1.0196-3.3941l3e-5 -1.1e-4c0.21091-0.83472 0.99387-1.9565 2.506-3.0777l2e-4 -1e-4c1.4072-0.71978 2.6254-0.95244 3.522-0.85479 1.1928 0.0325 2.2394 0.21795 3.1308 0.45961 2.2419 0.58849 4.278 1.4297 6.1498 2.308 1.5154 1.5859 3.0291 3.1726 4.5411 4.76l-5.7e-4 -0.0115-2e-3 -0.0313-2.4053 0.90437-7e-4 2.7e-4 0.16007-0.57065c0.19209-0.66864 0.395-1.3294 0.6061-1.9827l2e-5 -5e-5c0.65691-2.038 1.4131-4.0692 2.3034-6.0678 0.95804-2.1929 2.1563-4.4628 3.8221-6.5905 1.2006-1.8279 3.4203-3.6115 6.6833-4.2506 2.3976-0.21896 4.5728 0.12886 6.4358 0.67462 2.119 0.58119 4.0607 1.3221 5.8826 2.0195 1.8442 0.69536 3.5705 1.3662 5.2364 1.8092 1.495 0.3628 2.8154 0.64443 3.8715 0.47607 0.095 0.14344 0.43358-0.23255 0.68416-0.60515 0.5264-0.82153 0.83308-2.1812 1.4142-3.8438l3e-5 -9e-5c0.50592-1.704 1.3359-3.695 2.8841-5.6251l9e-5 -1e-4c2.0146-2.1982 4.6459-3.3657 7.2754-3.5264 2.5756-0.22106 5.2641 0.33756 7.6633 1.765 1.9601 1.2684 3.4113 2.8014 4.5262 4.2645l2e-5 4e-5c1.0868 1.3486 1.8692 2.5379 2.6673 3.2763 0.5847 0.43988 1.025 0.82914 1.1236 0.6657-0.0357-0.0297-0.11285 0.0329-0.37451 0.16215-0.10963 0.16018-0.11325 0.0671 0.0403-0.14954 0.39968-0.71588 0.5103-1.9551 0.81392-3.5273 0.19402-1.4309 0.48862-3.2662 1.3658-5.3156 0.36036-0.89647 1.0573-1.8628 2.142-2.7693l8e-5 -6e-5c1.2509-0.88594 2.5884-1.3017 3.8694-1.273h9e-5c2.2441 0.0483 4.2058 0.58817 5.8382 1.2861l9e-5 3e-5c1.9441 0.78734 3.6968 1.7196 5.3255 2.6248 3.5336 1.9162 6.6777 3.8924 9.849 4.7886l6e-5 1e-5c1.3433 0.39077 2.7217 0.5699 4.0135 0.44649 1.0719-0.21177 1.9052-0.29055 2.0344-0.596-0.0731 0.31003-0.1062 0.0663-0.1129 0.0121-0.10977-1.1043-1.468-2.3159-2.9565-3.9139-2.8904-2.7255-5.9186-5.5268-8.7255-8.7308-1.9524-2.0948-3.9644-4.8295-4.9763-8.4408-0.38611-1.5449-0.43393-3.1935-0.10101-4.8386 0.40577-1.7846 1.1478-3.329 2.0613-4.6002 2.6778-3.706 6.1449-6.2213 9.3661-8.2463l7e-5 -5e-5c1.6342-1.2062 3.0684-2.2569 3.3781-3.4011 0.33336-0.58091 0.21994-1.5784-0.0861-2.5268l-1e-5 -2e-5c-0.43979-1.3296-1.4779-2.6774-2.6705-4.1691-1.4162-1.7062-3.067-3.3492-4.7858-5.0705-1.4033-1.3393-2.993-3.0105-4.2875-5.2852-0.97424-1.5758-1.3308-3.7591-0.68332-6.2177 0.97284-2.3228 2.3435-3.8183 3.5109-4.6982 1.8306-1.6179 3.6921-2.9631 5.4062-4.2452 1.6218-1.2489 3.0871-2.3244 4.0692-3.5123 0.39133-0.69124 0.76494-0.95981 0.54423-0.73264v1e-5c0.18821 0.14228-0.18782-0.20284-0.58793-1.0067l-4e-5 -5e-5c-0.80981-1.1684-1.9359-2.3486-3.1437-3.7182-1.4766-1.6133-2.8785-3.5664-3.8817-5.9333-0.92661-2.2678-1.2334-4.7749-0.83775-7.2634 1.4846-7.0469 6.3274-11.96 10.729-15.542 1.0986-1.0008 2.0488-1.9759 2.6343-3.0021 0.41329-0.73166 0.7116-1.4458 0.74503-2.0642v-2e-5c0.2696-1.0667-0.50457-2.5601-1.4373-4.1762-1.2131-1.8777-2.9595-3.6822-4.782-5.7453-1.7638-1.9241-3.6896-4.1663-5.1829-7.0393-1.1954-2.359-1.9201-5.0152-2.0025-7.799-0.0346-2.6458 0.46747-5.1414 1.2705-7.393 1.8967-5.3266 4.7962-9.7958 7.2347-14.021 0.91579-1.7747 1.7541-3.2069 1.751-4.3479 0.036-0.34631-0.0541-0.76129-0.2375-0.91958-0.29039-0.48471-1.1184-1.0216-2.1679-1.8802-1.2602-0.94724-2.6418-2.0837-3.9532-3.5727-3.2663-3.9142-4.879-8.6945-5.2679-13.31-0.27576-2.5789-0.13955-5.2902 0.56116-7.9765 0.70546-2.7005 2.1023-5.27 4.1706-7.3787 1.0839-0.92964 1.6814-2.7541 2.2485-4.8031v-4e-5c0.58426-2.4442 0.72948-5.112 0.74137-7.8934v-8e-5c-2.5e-4 -2.7498-0.19701-5.5437-0.48048-8.3732-0.21354-2.1226-0.50766-4.3064-0.76074-6.5651-0.0278-1.2531-1.0181-2.8334-2.0279-4.8848-1.3976-2.5874-3.0352-5.1383-4.7237-7.7556-1.7037-2.6345-3.4788-5.3004-5.1888-8.0839l-2e-5 -4e-5c-1.2431-1.9615-2.6465-4.2428-3.6315-7.057-0.85965-2.8626-0.80789-5.5443-0.40821-7.7822l1e-5 -5e-5c0.42438-2.8958 1.231-5.6453 2.2505-8.2221 1.833-4.9669 4.6868-10.128 9.4209-13.958 5.4455-4.2432 11.024-8.296 16.688-12.202 3.4124-2.3544 6.8898-4.6659 10.476-6.8566 2.912-1.789 5.9941-3.5829 9.3822-5.0497 4.3764-1.7299 8.6727-1.7359 12.288-1.459l4e-5 1e-5c4.7925 0.22555 9.4714 0.89553 14.03 1.7167 3.9973 0.71571 7.9585 1.5656 11.884 2.5144l9e-5 2e-5c1.2309 0.29734 2.4627 0.60574 3.6945 0.92836l1.0263 0.27284 0.27098 0.0738 0.0707 0.0194c8e-3 2e-3 0.0167 5e-3 0.0249 7e-3z"
       id="path16" />
    <path
       d="m349.97 287.45c-2.6262 0.43-4.8747-0.08-6.5468-1.069-1.9387-1.0382-3.5323-2.4436-4.7588-4.0408-1.2664-1.5805-2.2389-3.5099-2.695-5.6668-0.45855-2.1368-0.14342-4.4414 0.99776-6.473 0.82362-1.2363 1.6696-1.9182 2.3075-2.2372 1.0802-0.6966 2.1672-1.2312 3.2175-1.6785 2.9512-1.2687 5.9928-2.1379 9.033-2.7478 1.7177-0.34835 3.4548-0.61356 5.1993-0.77976 1.8719-0.36405 3.7752-0.61389 5.7013-0.72559 3.7384-0.17661 7.648 0.2065 11.421 1.5737h1e-5c3.7861 2.7436 7.1968 6.9292 7.8737 12.348 0.22191 1.7002-0.20248 3.7199-1.6335 5.5905-1.6914 1.6969-3.8526 2.3422-5.8426 1.9577-7.7111-1.1846-15.817 1.6061-24.275 3.9486l-1.917-7.6197c7.7906-1.5352 16.454-3.2546 24.905-1.8473 0.74477 0.0635 1.492 0.15095 2.2416 0.26478 0.48906 9e-3 1.0248-0.0546 0.97095-0.24393 0.30379-0.18636 0.30611-0.95899 0.34141-1.8336 0.0634-3.0698-2.4415-5.9517-5.1804-8.3181-2.6866-1.0019-5.7308-1.202-8.8051-1.0067-3.244 0.13618-6.494 0.74507-9.6807 1.662-2.7143 0.79163-5.3239 1.7685-7.7071 3.0424-0.85392 0.46201-1.6196 0.90609-2.2372 1.393-0.44324 0.46364-0.65266 0.50722-0.36213 0.25794-0.25996 0.4051-0.22657 1.1637-0.0564 1.8676 0.21485 0.86905 0.81699 1.7653 1.5647 2.6268 0.78486 0.8341 1.6614 1.5169 2.5663 1.8865 0.78699 0.22399 1.367 0.43755 1.4389 0.24863z"
       id="path18" />
    <path
       d="m404.80373,277.73433c-.47471.34836-.81511,1.12539-1.02791,2.01345-.20625.95913-.14746,2.08733.0594,3.27218 .21209,1.06955.51998,2.08525.98106,2.9724 .62606.65218.5186,1.07249.062.66371-.0449.0533.23913.0706.78809.18302 .75578.12755 1.5511.22475 2.37789.31917h1e-005c2.32406.26447 4.6819.4667 7.05968.66646 4.40208.37039 8.8616.66023 13.32439,1.11959 .43286.004.86604.01 1.29957.0174 3.21076.0664 6.33181.53572 9.3522.95043 1.14839.15273 2.22843.299 3.23448.3094 .75064-.0374 1.2976-.014 1.48001-.19595-.40209.13871-.70293.49332-.95522,1.09563-.0571.52705-.0907.76945-.0295.74706-.007-.10976-.29691-.35872-.66791-.84307-1.2854-1.46013-2.90596-2.73684-4.61951-4.06615-2.19873-1.68503-4.49448-3.24086-6.86421-4.67122-2.28563-1.373-4.57049-2.61962-6.90032-3.53128-3.99584-1.60421-8.52939-1.95884-13.07201-1.73943-1.80697.11038-3.52746.30571-5.09672.71507-1.25135.64382-1.77405.41028-.78543.002l-6.03604-5.03002c2.41752-2.07869 4.35988-2.56003 5.26944-2.3495 2.25245-.34351 4.43469-.39909 6.52089-.31042 5.23971.16865 10.62065,1.21016 15.43684,3.62816 .58976.30199 1.16749.61719 1.73438.94348 2.03516.97396 3.96552,2.09244 5.81694,3.25967 2.50064,1.57011 4.924,3.27729 7.24695,5.12412 1.76197,1.38436 3.59112,2.92092 5.23526,4.83298 .45762.45497 1.03209,1.23806 1.51797,2.43534 .21955.35211.27911,1.08127.10863,2.16432-.40811,1.11382-1.05848,1.84821-1.89718,2.17406l-2e-005,1e-005c-1.49788.56487-2.7872.65784-3.72058.55136-1.37517-.0617-2.63756-.24755-3.78771-.4285-3.06184-.46149-5.98183-.95785-8.77083-1.03341-4.76673-.15783-9.60464-.0855-14.51988-.11583-2.3881-.0137-4.80536-.0324-7.25205-.11663-.86121-.0288-1.762-.0682-2.70089-.14649-.40408.003-1.15562-.0758-2.22278-.3755-2.37178-1.14741-3.55539-2.49108-3.78451-3.37042v-1e-005c-.94972-1.51034-1.62722-3.10894-2.0707-4.71108l-1e-005-1e-005c-.52892-1.80189-.78044-3.78714-.61676-5.87429 .15502-2.14711.94775-4.34208 2.4566-6.28141z"
       id="path20" />
    <path
       d="m473.21429,379.50504c-.0364.0885-.20838.1183-.51175.10871s-.73897-.0514-1.32242-.13276c-.70599-.0965-1.61162-.2385-2.70916-.42298-2.00881-.33744-4.64304-.81158-7.74773-1.39467-5.87219-1.10253-13.41051-2.59284-20.96735-4.1501s-15.05795-3.16572-20.87153-4.4665c-3.07152-.68706-5.66634-1.28669-7.63363-1.76326-1.07327-.25986-1.95368-.48251-2.63407-.66801-.56099-.15104-.97091-.28065-1.24966-.38771s-.42413-.19914-.42413-.29415 .14799-.19294.45084-.27257 .7627-.13338 1.34478-.1594c.72104-.0322 1.65372-.0185 2.76789.0433 2.04403.11329 4.7276.39104 7.85884.81347 5.9322.80018 13.52966,2.1325 21.10391,3.69198 7.57587,1.55962 15.09133,3.3387 20.87418,4.94589 3.05496.84898 5.64191,1.65285 7.57732,2.35393 1.05671.38273 1.92674.73721 2.58398,1.05006 .53375.25413.9409.48429 1.19289.67623s.35324.34002.3168.42852z"
       id="path22" />
    <path
       d="m502.5 387.36-8e-3 0.0192c-0.1937 0.41781-1.2226 0.62212-2.7824 0.56186s-3.6318-0.38439-5.6513-0.88795-3.9669-1.1823-5.3122-1.8522-2.072-1.3229-1.9604-1.7695 1.0651-0.67948 2.6093-0.62706 3.6603 0.38953 5.7392 0.91055 4.0905 1.2178 5.4545 1.8884 2.0637 1.3071 1.9188 1.7372l-7e-3 0.0195z"
       id="path24" />
    <path
       d="m516.79 401.65c-0.18983 9e-3 -0.40453-0.24096-0.56106-0.78177s-0.24856-1.3782-0.0887-2.4344 0.58236-2.3327 1.4239-3.5786 2.1092-2.4522 3.7866-3.2515h1e-5c2.2598-0.97937 4.7995-1.3772 7.2037-1.2868s4.6589 0.63794 6.4842 1.2865 3.226 1.3818 4.1224 1.9694 1.2962 1.0362 1.2004 1.2916-0.69095 0.32003-1.7367 0.21716-2.5469-0.38058-4.3229-0.6805-3.8175-0.61308-5.8416-0.64398-4.0174 0.24888-5.7846 0.97504c-1.1291 0.38929-2.0906 1.1061-2.8407 1.8974s-1.2888 1.6532-1.6729 2.4108-0.61988 1.4138-0.8175 1.8739-0.36475 0.72648-0.55458 0.73597z"
       id="path26" />
    <path
       d="m524.64286,404.86218c-.0868.0744-.20736.11315-.36353.0838s-.34888-.12844-.53773-.32864-.37366-.50364-.46574-.91318-.0899-.92688.13048-1.49683c.23877-.5485.62156-1.09531 1.12001-1.55311s1.11164-.82437 1.75204-1.03812c1.32813-.47697 2.84049-.61339 4.23476-.42045s2.65898.69913 3.62204,1.28799 1.62999,1.24572 2.00021,1.77765 .45202.93938.29317,1.17236-.56007.29568-1.15838.23009-1.39686-.25965-2.30115-.47613-1.90858-.45043-2.88748-.55556-1.92689-.0689-2.78852.15486c-.39344.11708-.7589.20595-1.0556.30605s-.52497.21299-.69289.36165c-.12863.0284-.24849.13796-.34535.26664s-.17042.27789-.22665.42215c-.11246.28852-.15619.5701-.32969.71882z"
       id="path28" />
    <path
       d="m582.14 435.58c0.0422 0.0338-0.0672 0.26785-0.36248 0.67789s-0.779 0.99466-1.5185 1.6781-1.7398 1.4629-3.0422 2.2437-2.9135 1.559-4.7596 2.2747c-1.88 0.73711-4.0362 1.4321-6.4592 2.0345s-5.1136 1.1104-8.0274 1.5231c-4.5505 0.64719-9.6854 1.0576-15.31 1.1033-3.9142 0.0335-8.0968-0.0689-12.481-0.63408-5.3373-0.69448-10.827-2.608-15.911-5.7201-1.5071-0.92077-2.9869-1.9472-4.4076-3.0973-0.39416-0.31903-0.78735-0.65111-1.1753-1.0004l-0.3129-0.2881 0.75225-0.18252 0.27058-0.0668 4e-5 -1e-5c-0.37237 1.1839-0.74111 2.3785-1.1064 3.5835-0.60424 0.8889-1.3075 1.8192-2.2203 2.6664l-2e-5 1e-5c-0.33673 0.32396-0.78715 0.65989-1.3767 0.93684-0.47294 0.25839-1.1497 0.33815-1.9619 0.13948-0.77897-0.33167-1.2747-0.78387-1.5011-1.2223-0.34838-0.54549-0.57005-1.0779-0.71556-1.5534-0.38947-1.2106-0.58564-2.4173-0.71846-3.5654-0.13113-1.0861-0.2127-2.1752-0.26103-3.2623-0.0158-0.35158-0.028-0.70524-0.0359-1.061l2e-5 2e-5 0.4537 0.26137 0.12227 0.0696 0.0451 0.0255c-8.2821-1.6156-16.893-3.2936-25.725-5.0157v-3e-5c-0.055-1.0938-0.10837-2.1916-0.16022-3.2932l-6e-3 0.0315 1.4951 0.19118 1e-5 1e-5 -0.20156 0.39775c-0.23881 0.4681-0.48129 0.93414-0.72671 1.3984-0.74538 1.4105-1.5238 2.8189-2.3516 4.2131-0.83738 1.4172-1.7427 2.8722-2.844 4.2605l-2e-5 2e-5c-0.38386 0.49634-0.85891 1.0395-1.4824 1.5546l-3e-5 3e-5c-0.23765 0.39588-1.0246 0.7531-2.3323 0.76141-0.88152-0.22752-1.4666-0.60601-1.756-1.0004-0.44595-0.48602-0.7639-0.97238-0.9949-1.4114-0.614-1.1338-1.0418-2.2856-1.396-3.3848l-0.67161-3.809-2e-4 -2.1e-4 -1.3865-0.21509h-1e-5c-0.5745-0.16883-1.3986 0.25327-1.6916 0.87425l-1e-5 1e-5c-1.3224 2.1147-3.4409 4.0044-6.2287 4.6784-1.5542 0.3237-3.1768 0.0165-4.5207-0.88434-1.6126-1.1533-2.4622-2.7983-2.8784-4.3201-1.5134-0.3842-3.188-0.48422-4.9326-0.55044-2.5154-0.30363-5.0678-0.45961-7.6388-0.5607h-3e-5c-5.9797-0.23461-11.975-0.1467-17.937 0.0419l-21.872 0.76918-2.0194 5.0779-2e-5 3e-5c-0.82393 1.4074-1.7947 2.8296-3.0542 4.0843l-2e-5 3e-5c-0.92046 1.0594-2.4537 1.9855-4.4459 1.977-1.5711-0.19273-2.856-1.0237-3.6564-2.1578s-1.2588-2.3487-1.5278-3.4901c-0.26262-1.0473-0.41921-2.0951-0.50299-3.1251-0.028-0.33673-0.0486-0.67654-0.0602-1.0191h4e-5l0.84683-3e-3 0.22841-2e-3 0.0857-5.3e-4 0.22244 0.15135c0.4113 0.2483 0.82446 0.48833 1.2404 0.72078l6e-5 3e-5c-0.24583 0.28781-0.49846 0.54822-0.75024 0.78636l-2e-5 2e-5c-0.9662 0.91281-2.024 1.6607-3.1032 2.2883-4.4902 2.5981-9.4836 3.5889-14.193 3.9216-3.4887 0.251-6.895-0.2611-10.029-1.3215s-5.9942-2.669-8.4451-4.637c-3.1989-2.5816-5.785-5.5536-7.9591-8.6164s-3.9362-6.2165-5.4404-9.2529l-1e-5 -2e-5c-1.4314-2.8589-2.4707-5.8778-2.9169-8.7938s-0.30151-5.7299 0.45892-8.2878c1.1946-1.6315 2.3151-3.1957 3.3603-4.6865-1.1215-0.32381-2.1972-0.63933-3.2264-0.94599 9e-5 -0.0187 2e-3 -0.0379 4e-3 -0.0562l-0.21073-0.65847c0.0766-0.27794 0.18665-0.52059 0.31206-0.72965 0.55091-0.90386 1.3177-1.4994 2.0514-1.9315 2.1512-1.2916 4.2369-1.8702 6.0576-2.22s3.383-0.45941 4.6282-0.51738 2.1783-0.0556 2.7985-0.0368 0.92976 0.0588 0.93375 0.11868-0.29808 0.1397-0.90929 0.242-1.5347 0.22272-2.7545 0.39822-2.7415 0.39777-4.4664 0.83389-3.66 1.075-5.5331 2.3602c-0.61006 0.42835-1.1978 0.89824-1.4913 1.4934-0.0667 0.13198-0.11902 0.25322-0.13898 0.36121-0.0917-0.10823-0.18201-0.22538-0.2692-0.35175-2e-3 0.0196-5e-3 0.0401-5e-3 0.0598l3.2021 1.1971c-0.83452 1.7969-1.7128 3.7288-2.6316 5.7939-0.62948 2.2382-0.66219 4.7162-0.14705 7.3195s1.5805 5.3332 2.9668 7.9756l1e-5 1e-5c1.5487 2.924 3.3161 5.9374 5.4356 8.8211s4.5908 5.6381 7.5935 7.9525c2.2397 1.735 4.8382 3.1457 7.6498 4.0598s5.8365 1.3314 8.8765 1.053c4.4472-0.40971 8.9991-1.3242 12.823-3.6451 0.91712-0.55359 1.775-1.1644 2.5014-1.8733l2e-5 -2e-5c0.18956-0.18472 0.363-0.36497 0.51248-0.54545l1.3e-4 4e-5c0.51907 0.11036 1.0332 0.22643 1.5415 0.34758 0.10826 5e-3 0.21688 9e-3 0.32412 0.0134 0.0287 0.0174 0.0574 0.0351 0.0861 0.0525l0.23038 0.14102 0.862 0.52814 5e-5 2e-5c0.0121 0.28412 0.0322 0.57114 0.0588 0.86081 0.0834 0.89043 0.2188 1.7629 0.4386 2.5975 0.25953 0.92061 0.54786 1.7594 1.0176 2.3537 0.37393 0.46018 0.8755 0.83925 1.2916 0.81212 0.3895 0.18994 1.0419-0.43285 1.8403-1.0615l2e-5 -2e-5c0.92377-0.88951 1.6845-2.0483 2.4318-3.3005l1e-5 -2e-5 3.3513-5.9271 23.335-1.8211c6.0172-0.21025 12.11-0.31072 18.231-0.0794h2e-5c2.6245 0.099 5.2724 0.26112 7.9252 0.57922 2.1849 0.4065 4.4491 0.90186 6.6998 1.7355 0.79127 1.564 1.5773 3.0142 2.6908 3.7379 0.47346 0.35049 1.1838 0.47826 1.7851 0.34334 1.5298-0.24462 2.9216-1.6335 4.0392-3.1788l2e-5 -4e-5c1.2761-1.7326 3.4065-2.6115 5.603-2.2558l3e-5 1e-5 2.747 1.4862 4e-5 2e-5 1.6581 4.8767c0.32963 0.9926 0.65854 1.917 1.1011 2.7049 0.18326 0.31443 0.32594 0.56368 0.47028 0.70107 0.14017 0.0592 0.0752 0.0938-0.19078-0.0311-0.59955 0.12633-0.72032 8e-3 -0.39865-0.0442l2e-5 -1e-5c0.29956-0.22497 0.59863-0.58816 0.95249-1.0134l2e-5 -2e-5c0.94333-1.1658 1.7668-2.4891 2.5957-3.8616 0.79889-1.3294 1.5572-2.6848 2.2911-4.0539 0.24114-0.45001 0.47871-0.9002 0.71197-1.3509l0.19494-0.37906h4e-5l1.5998-0.0163h2e-5l0.0313-0.0434 1.9826 2.421 2e-5 2e-5 25.704 5.6986 0.0453 0.0828 0.12325 0.22437 0.46128 0.83876 2e-5 4e-5c4e-3 0.3295 0.0121 0.65976 0.0235 0.99068 0.0357 1.0261 0.10004 2.0373 0.20961 3.0298 0.12482 1.0768 0.26511 2.0858 0.55423 2.9816 0.12138 0.3529 0.21903 0.63851 0.34642 0.8168 0.1242 0.0949 0.0868 0.14358-0.0888 0.013-0.24266-9e-3 -0.28873-0.051-0.21335-0.0319 0.13762-0.0403 0.32159-0.19869 0.5722-0.40249l1e-5 -1e-5c0.62825-0.53757 1.1765-1.2655 1.7461-2.0518 1.1418-1.2657 2.2663-2.5188 3.3727-3.7589l1e-4 -3e-5 0.32277-0.0154 0.89899-0.0407 0.25937 0.24533c0.33728 0.31248 0.6879 0.61663 1.0473 0.91629 1.295 1.0795 2.6587 2.0541 4.0586 2.9396 4.7179 2.9784 9.8136 4.8641 14.772 5.5996 4.2023 0.62744 8.281 0.8119 12.139 0.87263 5.5296 0.0846 10.581-0.17875 15.069-0.67129 2.8783-0.31761 5.5257-0.71836 7.9116-1.2096s4.5111-1.0713 6.3741-1.6948c1.829-0.62025 3.4235-1.2711 4.7267-1.9275s2.3216-1.3136 3.0996-1.8905 1.3204-1.0699 1.6872-1.4004 0.56066-0.49674 0.60291-0.46294z"
       id="path30" />
    <path
       d="m269.64286,360.21932-.007-.00041c-.20258-.0192-.36606-.47325-.47983-1.34707s-.17773-2.16743-.18762-3.81097c.0886-1.26965.29382-2.77486.838-4.42079 .38438-1.23816 1.06503-2.64393 2.39609-3.82858 1.78255-1.44507 3.92381-2.19954 5.75333-2.87714 .55575-.35718.88228-.31383.56679-.1685-.12312.2955-.16933.4851-.11424.63549 .0514.0532-.0425-.0292-.17862-.26491-.53924-.62634-1.14787-1.58306-1.42936-2.91761-.0785-1.72858.68062-3.03541 1.72947-3.70397 1.92768-1.32695 3.9281-1.75653 5.56801-2.04535 3.27804-.64916 6.05209-.79511 7.94809-.77513s2.9191.22057 2.95422.52494-.92428.71372-2.72597,1.21794-4.44242,1.08531-7.44315,1.99169c-1.58163.50932-3.20892.91408-4.25342,1.81627-.23412.29367-.50316.53146-.32409.42549-.0292.25475.36633.67121.80278,1.34579v1e-005c.28181.32155.58051.83956.79236,1.57101v1e-005c.16099.59809.0745,1.27751-.28165,1.96919-.91363,1.16215-1.83849,1.60769-2.37964,1.66185h-1e-005c-2.00182.75915-3.79207,1.20679-4.96094,2.12287-.72994.46415-1.24522,1.40812-1.72796,2.36305-.59746,1.24151-.97057,2.51473-1.28313,3.64439-.29525,1.54448-.58486,2.77173-.85128,3.60322s-.50945,1.26645-.71385,1.26745l-.007-.00023z"
       id="path32" />
    <path
       d="m414.29 339.51c-0.0757 0.0757-0.26307 0.0448-0.55775-0.11556s-0.69933-0.45094-1.1599-0.92105-0.98046-1.122-1.4082-2.0087-0.76593-2.0112-0.71881-3.3921c0.13045-1.3982 0.65202-2.8416 1.5419-4.1774s2.1487-2.5617 3.5344-3.5332l1e-5 -1e-5c2.1431-1.6141 4.5818-3.1953 7.1977-4.6063s5.4067-2.6497 8.2021-3.6428c3.1522-1.1266 6.3409-1.9116 9.2724-2.3432s5.6002-0.51398 7.7878-0.39452 3.894 0.43067 5.0204 0.7423 1.6757 0.61567 1.6451 0.82104-0.63935 0.31254-1.7705 0.39048-2.7856 0.13481-4.8542 0.33029-4.5522 0.53844-7.2724 1.1434-5.6743 1.4746-8.6273 2.5865c-2.6302 0.99632-5.2685 2.1695-7.773 3.4584s-4.8734 2.6922-7.0057 4.0961c-1.2008 0.85437-2.3176 1.7353-3.12 2.6404s-1.2909 1.8355-1.4466 2.774c-0.22734 0.86043-0.11503 1.7064 0.0857 2.4526s0.49265 1.3941 0.74572 1.9201 0.47045 0.93256 0.59593 1.2264 0.16087 0.47703 0.0851 0.55275z"
       id="path34" />
    <path
       d="m451.79 333.43c0.14358 0.22335-0.18987 0.7794-1.0856 1.4998s-2.3831 1.5547-4.172 2.3516c-2.3418 1.0535-5.3342 2.0929-8.4466 2.941-2.2136 0.60507-4.4989 1.136-6.6562 1.5323s-4.1833 0.6572-5.8934 0.78025-3.1014 0.11094-4.0503 7e-3 -1.4546-0.29735-1.4816-0.54022 0.42367-0.5352 1.3014-0.87248 2.1808-0.72232 3.7938-1.164 3.5345-0.94238 5.6068-1.4813 4.2939-1.1152 6.4845-1.6674c3.0645-0.77502 6.0199-1.5253 8.4172-2.1482 1.8827-0.50189 3.3722-0.85794 4.4041-1.1103s1.6344-0.35101 1.778-0.12766z"
       id="path36" />
    <path
       d="m430.71 349.51c0-0.37412 0.80338-0.72732 2.1989-1.1215s3.3765-0.85751 5.5536-1.4627h1e-5c1.6093-0.44585 3.3198-0.96235 4.9663-1.4929s3.2275-1.071 4.5954-1.5162 2.5218-0.79076 3.3539-0.94926 1.3421-0.12784 1.4747 0.11393-0.11283 0.6949-0.73297 1.2988-1.6163 1.3565-2.9121 2.1279-2.8914 1.5561-4.6244 2.2124-3.5997 1.1788-5.3759 1.4987c-2.4163 0.43381-4.6382 0.46221-6.1602 0.26105s-2.3373-0.59613-2.3373-0.97025z"
       id="path38" />
    <path
       d="m409.64286,325.21932-4e-005-.0001c-.00042-.001-.004-.0101-.0384-.0228s-.10063-.0303-.22512-.0491c-.0863-.0584-.17408-.15274-.25996-.28111-.16888-.24651-.33036-.62596-.4571-1.11565-.25756-.99565-.36539-2.49076-.1628-4.18312 .18855-1.55628.63389-3.27705 1.29143-4.88655s1.51983-3.10007 2.39615-4.28131 1.75625-2.05427 2.45014-2.56313 1.1978-.6582 1.43426-.47429 .20699.69986-.0398,1.48667-.7066,1.84555-1.24816,3.07678-1.15801,2.63429-1.71884,4.06657-1.06125,2.89195-1.46672,4.21458c-.44417,1.44217-.78062,2.69211-1.0743,3.57951-.14451.43674-.28135.77907-.4213,1.02181-.0712.11924-.14331.21334-.21744.28249-.11835.0458-.17909.0774-.21.0978s-.032.0294-.032.0308l-1e-005,.0001z"
       id="path40" />
    <path
       d="m390.17 327.58s-19.698 3.0305-22.223 4.5457-14.395 6.0609-15.657 9.3439 2.5254 11.869 8.0812 13.132 34.345-4.2932 34.345-4.2932c0.31747-7.9427-0.85461-15.587-4.5457-22.728z"
       fill="#fff"
       id="path42" />
    <path
       d="m381.79 367.36c-0.0196-0.15207 0.70682-0.34997 2.0199-0.8898 0.65653-0.26992 1.4575-0.63575 2.3682-1.1517s1.9314-1.1853 3.014-2.0204c1.878-1.459 3.9408-3.4479 5.9064-6.0243h1e-5c1.2478-1.6545 2.5169-3.462 3.2392-5.5245 0.17308-0.5959 0.35919-1.049 0.27153-1.297-0.0417-0.0266 9e-3 0.0303 0.11932 0.23321 0.20294 0.1727 0.32167 0.26088 0.41825 0.24897-0.48138-0.0449-1.064 0.0297-1.7512 0.0923-0.99503 0.10317-2.0184 0.25181-3.0738 0.41503-2.6669 0.41328-5.4443 0.92395-8.318 1.463-5.0071 0.93982-10.277 2.0451-15.711 2.9704-2.8128 0.49276-5.8223 0.64884-8.8171 0.0461-2.719-0.58085-5.1883-1.7574-7.3918-3.1365-2.5836-1.6115-4.1801-4.4767-4.1511-7.5114 0.12502-3.1692 1.7571-5.9537 4.0062-7.7634 2.0522-1.6599 4.2746-2.7504 6.319-3.7306h1e-5c3.5704-1.7373 7.0893-3.0957 10.404-4.1692 3.7931-1.2407 7.3849-2.1342 10.561-2.6601s5.9375-0.69255 8.1638-0.65801 3.9196 0.25968 5.0391 0.48648 1.6673 0.44821 1.6495 0.58148-0.60017 0.17858-1.7179 0.21274-2.7716 0.0644-4.9104 0.26888-4.7643 0.59351-7.7838 1.308-6.4341 1.7621-10.085 3.1032c-3.1702 1.1758-6.5196 2.6002-9.8969 4.3576h-1e-5c-2.0036 1.0558-4.0075 2.0697-5.6118 3.4569-1.5475 1.3541-2.7168 3.3241-2.6902 5.2723-0.0622 1.707 1.013 3.5315 2.5454 4.4529 2.0143 1.2164 4.1083 2.2351 6.2689 2.667 2.3842 0.51367 4.9604 0.35981 7.5222-0.0432 5.3584-0.87343 10.639-1.9039 15.717-2.7438 2.8955-0.47908 5.7272-0.92251 8.4677-1.2602 1.0813-0.13356 2.1634-0.25306 3.2432-0.32716 0.67371-0.0537 1.4456-0.1013 2.2889-0.0138 0.48473 0.0269 0.98805 0.27219 1.4456 0.73638 0.38191 0.51375 0.54887 0.98772 0.54709 1.3683 0.0435 1.0888-0.22965 1.94-0.52507 2.5604-1.0221 2.4666-2.5134 4.4077-3.9371 6.0491l-1e-5 1e-5c-2.2538 2.6293-4.6239 4.5895-6.761 5.9511-1.2282 0.78825-2.401 1.3797-3.4432 1.7976s-1.9543 0.66545-2.6944 0.80541c-1.4802 0.27994-2.2554 0.17241-2.2751 0.0203z"
       id="path44" />
    <path
       d="m349.64 334.51c-0.23919-0.0342-0.41773-0.50583-0.51429-1.3855s-0.12433-2.1694 0.0672-3.8c0.23452-1.9959 0.81893-4.4655 1.9404-6.9471 1.0268-2.2382 2.4894-4.3958 4.1495-6.1988s3.5005-3.2501 5.1663-4.2824 3.1461-1.6595 4.1939-1.9662 1.6631-0.30204 1.7828-0.0627-0.25388 0.71371-1.0263 1.4208-1.9416 1.6532-3.2848 2.8532-2.852 2.6585-4.2485 4.3179-2.6678 3.5195-3.648 5.4158c-1.1089 2.113-1.9008 4.2476-2.5016 6.0104-0.48703 1.4228-0.85459 2.6327-1.1956 3.4412s-0.64178 1.2176-0.88097 1.1835z"
       id="path46" />
    <path
       d="m328.57 337.36c-0.3954 0-0.81197-0.78908-1.0566-2.265s-0.30107-3.6569 0.29968-6.04c0.41335-1.563 1.072-3.1227 1.8579-4.4999s1.6907-2.5716 2.5417-3.4974 1.6437-1.5862 2.255-1.9641 1.0415-0.47475 1.2452-0.30504 0.18102 0.60655-0.0434 1.2698-0.6504 1.5526-1.183 2.5965-1.1674 2.2411-1.7695 3.5026-1.1644 2.5872-1.6043 3.8825c-0.67182 1.88-1.0296 3.785-1.3991 5.1517s-0.7481 2.1683-1.1435 2.1683z"
       id="path48" />
    <path
       d="m336.79 335.22c-0.39147 0-0.81241-0.68904-0.99914-2.0033s-0.0953-3.2601 0.61296-5.2907h1e-5c0.48468-1.3489 1.188-2.6793 1.9911-3.8379s1.6982-2.1458 2.5285-2.8975 1.5921-1.2709 2.1776-1.5499 0.99534-0.31892 1.189-0.13498 0.17106 0.59236-0.0478 1.1864-0.63396 1.373-1.1607 2.2724-1.1611 1.9177-1.7802 2.9826-1.2165 2.1771-1.7144 3.2634c-0.73208 1.539-1.2113 3.0871-1.6244 4.2081s-0.781 1.8014-1.1725 1.8014z"
       id="path50" />
    <path
       d="m361.79 361.65c-0.0339 0.19221-0.30144 0.34772-0.80254 0.42746s-1.2366 0.0813-2.1541-0.0643-2.0163-0.44187-3.1895-0.94215-2.418-1.2068-3.6003-2.1119c-1.5697-1.2101-3.0539-2.6686-4.3189-4.1665s-2.3152-3.0261-3.1138-4.3693-1.349-2.499-1.6419-3.3358-0.32704-1.356-0.10748-1.509 0.69371 0.0612 1.3788 0.6149 1.5784 1.4481 2.6112 2.5556 2.204 2.4227 3.4524 3.7458 2.578 2.6452 3.9112 3.8103c1.8697 1.6543 3.86 2.8416 5.3078 3.6504s2.335 1.31 2.2672 1.6944z"
       id="path52" />
    <path
       d="m360.71 372.36c9e-3 0.21173-0.30817 0.44859-0.96736 0.62075s-1.6638 0.27087-2.922 0.12743-2.7677-0.53951-4.3182-1.2813-3.1335-1.832-4.5048-3.1831c-1.5916-1.5607-2.9726-3.3691-4.062-5.1752s-1.8935-3.6006-2.4463-5.1454-0.8595-2.8374-0.9746-3.7407-0.0391-1.4186 0.19521-1.5082 0.6278 0.24684 1.1634 0.96197 1.2131 1.8096 2.0284 3.1384 1.7698 2.8873 2.8681 4.4572 2.3456 3.1424 3.706 4.5336c1.1222 1.1423 2.3525 2.1454 3.5469 2.9332s2.3507 1.3602 3.3468 1.769 1.8325 0.66162 2.4165 0.87739 0.9152 0.4031 0.92402 0.61483z"
       id="path54" />
    <path
       d="m298.59 407.21c0.3209 3.61 1.1643 7.1719 2.4022 10.574 1.825 5.0137 4.506 9.6926 7.6909 13.983 4.7607 6.4146 10.614 11.941 17.104 16.59 3.0829 2.4346 6.3396 4.672 9.7165 6.706 10.979 6.5916 23.35 11.014 36.132 12.446 11.172 1.2521 22.696 0.0853 33.336-3.7042 1.7393-0.61947 3.1931-0.98018 4.2971-1.093s1.8576 0.0246 2.1417 0.38679 0.0967 0.95272-0.71348 1.6839-2.2476 1.6066-4.4487 2.4184c-10.997 4.0557-22.896 5.4531-34.507 4.3482l-0.48349-0.0435c-13.427-1.2496-26.482-5.6071-38.139-12.31-10.876-6.233-20.713-14.57-28.007-24.931l-1e-5 -1e-5c-3.2772-4.6563-6.0074-9.7646-7.8453-15.244-1.2509-3.7264-2.0566-7.632-2.2988-11.596-0.1207-1.9922 0.14706-3.2206 0.50282-3.853s0.80933-0.67998 1.2448-0.39225 0.86065 0.90651 1.2022 1.6403 0.60185 1.5834 0.67349 2.3894z"
       id="path56" />
    <path
       d="m312.34 424.61c2.6546 3.7686 5.2601 7.5656 8.126 11.146 3.5353 4.4156 7.4435 8.5433 11.829 12.055 0.6251 0.52039 1.2607 1.0283 1.9071 1.5227h1e-5c5.9254 4.5354 12.771 7.8823 20.013 9.7677 8.2051 2.1395 16.822 2.47 25.317 1.6584 2.2041-0.21055 3.5561-0.18866 3.7007 0.0121s-0.92478 0.59984-3.6102 0.8693c-6.7078 0.6731-13.51 0.63644-20.157-0.43307-1.8467-0.29072-3.6818-0.66116-5.5002-1.1183h-1e-5c-7.3895-1.8616-14.394-5.2146-20.485-9.7986-5.2464-3.9517-9.7988-8.7467-13.829-13.899-2.8567-3.6515-5.431-7.4903-8.0403-11.281-2.5067-3.6433-0.4041-2.11 0.72924-0.50105z"
       id="path58" />
    <path
       d="m407.36 454.26c4.6229-2.3413 9.782-3.5543 14.912-4.3017 1.3998-0.20494 2.8044-0.37395 4.2124-0.51104 4.6452-0.31577 9.3033-0.28415 13.935-0.0523l18.357 2.1088c1.463 0.16808 2.2884 0.49782 2.2631 0.72331l1e-5 -4e-5v-3e-5l1e-5 -3e-5v-5e-5l1e-5 -2e-5v-5e-5l1e-5 -2e-5v-2e-5c0.0423-0.29384 0.0431-0.29972-7.9e-4 5e-3v6e-5l-1e-5 3e-5v4e-5l-1e-5 3e-5v2e-5l-1e-5 3e-5v4e-5l-1e-5 3e-5v6e-5l-1e-5 3e-5v4e-5 -1e-5 1e-5c-0.0359 0.20368-0.77597 0.31937-2.381 0.14649l-12.677-1.3654-5.6352-0.57632c-5.9938-0.22353-12.002-0.11143-17.928 0.65873-5.0746 0.66375-10.142 1.7532-14.673 3.958-1.2406 0.60333-1.6018 0.59129-1.5359 0.30598s0.58903-0.81534 1.1514-1.1001z"
       id="path60" />
    <path
       d="m465.90472,457.43462c10.00543-.27419 19.97375-1.47692 29.73643-3.59227 1.11628-.24233 2.23054-.50926 3.3452-.78755 5.13359-1.18753 10.28357-2.61531 15.6167-2.99581 2.54097-.17422 5.05635.27462 7.45532.9389h1e-005c2.63758.7269 5.17844,1.71309 7.69207,2.71631 2.51621,1.00332 5.00769,2.04164 7.5561,2.89396 2.28493.76193 4.61819,1.40026 6.99185,1.50844 2.77914.12532 5.61113-.0139 8.21741-.87726 .31879-.1056.61762-.212.89676-.31666 .88881-.33278 1.56-.65489 2.02521-.88544 .22774-.11285.40611-.20278.53805-.25828 .0665-.0284.12223-.049.16653-.0593-.0252-.0705-.0637-.13221-.0699-.14199l7e-005,6e-005c.007.0104.0537.0792.18092.24651-.0121.0445-.0395.10245-.082.17038-.077.126-.21365.29312-.41676.48155-.39057.36211-1.04841.82633-2.01446,1.24083-.28697.1228-.60069.24333-.94213.35741-2.75618.92085-5.6964,1.08921-8.53643.96102-2.50856-.11106-4.92975-.75472-7.25056-1.52461-1.95692-.64612-3.86751-1.39318-5.76562-2.14599l-1.8557-.72887c-2.51582-.98131-5.02885-1.93747-7.60324-2.62481h-1e-005c-2.34385-.62195-4.74339-1.04122-7.09887-.85236-6.31381.48403-12.46582,2.53827-18.8082,3.84369-9.85524,2.03214-19.89819,3.14129-29.96001,3.31659-2.41342.0417-2.94914-.19122-2.6148-.41006s1.53384-.44517 2.60008-.47439z"
       id="path62" />
    <path
       d="m299.28571,384.86218c0-.46212.36565-.92139.99371-1.24816s1.51082-.51701 2.39904-.51701 1.77097.19023 2.39904.517 .99372.78603.99372,1.24815-.36565.92139-.99371,1.24816-1.51082.51701-2.39904.51701-1.77097-.19023-2.39904-.517-.99372-.78603-.99372-1.24815z"
       id="path64" />
    <path
       d="m297.14286,392.71932-.0102-.0287c-.11916-.3611-.035-.78498.2486-1.19256s.76547-.7967 1.34466-1.0888c.41556-.19814.9148-.33766 1.43186-.37887s1.04696.0177 1.488.16449 .78772.3787.99097.63962 .26471.54717.22034.81337-.18847.51258-.37733.7329-.42087.41758-.68656.59619-.56946.33933-.92127.46496-.75434.21377-1.17478.23997c-.58161.0859-1.15364.04-1.61001-.12658s-.79394-.45315-.93378-.80751l-.0106-.0285z"
       id="path66" />
    <path
       d="m297.5,398.79075c-.0612-.45874.16672-.95315.61933-1.34364s1.12436-.67226 1.82561-.76576 1.42335.002 1.96246.26069 .88858.67569.94974,1.13443-.16672.95315-.61933,1.34364-1.12436.67226-1.82561.76576-1.42335-.002-1.96246-.26069-.88858-.67569-.94974-1.13443z"
       id="path68" />
    <path
       d="m390.28311,326.67656c1.12518,1.40337 1.87974,3.0881 2.50721,4.75101 .40303,1.0573.7544,2.13358 1.06508,3.22138 .27691,1.2868.4968,2.58187.67884,3.87716 .31926,2.26538.52359,4.54738.58143,6.83176 .0318,1.15408.0713,2.34121-.0669,3.51379-.074.62789-.37776.96181-.59866.94973s-.35077-.32949-.27997-1.03078c.10948-1.08447.0491-2.2257.006-3.38523-.0289-.70309-.0721-1.40592-.12843-2.1081-.14242-1.53556-.3481-3.06647-.60649-4.589-.40125-2.35825-.92307-4.69037-1.68362-6.93471-.5649-1.6424-1.20108-3.25733-2.1833-4.57383-.34501-.46304-.28173-.69033-.0607-.76828s.59375.0259.7695.2451z"
       id="path70" />
    <path
       d="m369.29 331.65c0 7.1428 10 11.429 15 11.071s10.357-7.6786 7.1429-15.179c-6.4286-2.3214-22.143 4.1072-22.143 4.1072z"
       id="path72" />
    <path
       d="m428.04 321.11c1.4286 6.4286 6.9643 9.2857 12.5 8.9286s9.4643-10 9.2857-14.286c-15 0.17857-21.786 5.3571-21.786 5.3571z"
       id="path74" />
    <path
       transform="translate(.35714,-.71429)"
       d="m388.75,331.02289c0,1.03553-.83947,1.875-1.875,1.875s-1.875-.83947-1.875-1.875 .83947-1.875 1.875-1.875 1.875.83946 1.875,1.875z"
       fill="#fff"
       id="path76" />
    <path
       transform="translate(57.857 -11.964)"
       d="m388.75,331.02289c0,1.03553-.83947,1.875-1.875,1.875s-1.875-.83947-1.875-1.875 .83947-1.875 1.875-1.875 1.875.83946 1.875,1.875z"
       fill="#fff"
       id="path78" />
    <path
       d="m303.55 501.16 1.4528 3.3744 4.934 23.646v1e-5c2.2743 6.0552 5.3857 11.804 9.7859 16.261 4.6898 4.8213 11.079 7.9435 17.678 8.6254 7.9857 0.84078 16.15 0.0171 23.716-2.4187 5.1071-1.4965 9.9848-3.7281 14.4-6.6967 8.9358-6.1131 16.439-14.655 19.904-24.677 5.6075-2.1907 10.779-5.6964 15.865-9.3678 2.575-1.6202 5.1541-3.2619 7.7374-4.9249-1.2116-1.4542-2.4211-2.9224-3.6283-4.4047-0.945-1.4217-1.9109-2.7955-2.9698-4.0564v-1e-5c-0.89808-1.0092-1.6263-1.9434-2.4588-2.3192-2.6289-1.4033-5.9195-1.641-9.2567-1.7081-0.5554-0.0161-0.98762-0.10019-1.3005-0.1767-0.5559-0.11713-1.0888-0.25131-1.603-0.38418-1.3734-0.3539-2.7208-0.72643-4.0569-1.064-1.4188-0.35718-2.815-0.68959-4.2026-0.90883-1.1068-0.14578-2.068-0.33057-2.8135-0.13938-2.1833 0.4751-4.2605 0.74118-5.9879 1.5429-2.4752 1.085-4.4755 3.2631-5.6586 5.8034-1.0277 2.2186-2.3187 4.2374-3.5995 6.1889-1.5528 2.3735-3.1564 4.6885-4.696 7.0244-0.96186 1.4708-1.9278 2.9408-2.8367 4.428-1.7507 2.8644-3.0815 5.1318-4.0514 6.7714s-1.639 2.6391-2.1186 2.7144-0.78292-0.81338-0.47372-2.7634c0.1546-0.97499 0.47366-2.2074 1.0371-3.6574s1.3766-3.1151 2.4688-4.9381c0.93917-1.5675 1.9247-3.0762 2.8952-4.5426 1.556-2.3925 3.1435-4.714 4.6462-7.0417 1.2485-1.9468 2.4408-3.8132 3.301-5.7265 1.4826-3.3021 4.088-6.1225 7.4876-7.7247 2.412-1.056 4.7478-1.4233 6.7504-1.8417 1.686-0.30855 3.1184-0.14758 4.2198 0.0694 1.5808 0.24274 3.0939 0.58879 4.5518 0.94955 1.3945 0.34327 2.7504 0.70915 4.0816 1.0437 0.50371 0.12602 0.98028 0.24429 1.4335 0.33639 0.35139 0.0557 0.52591 0.11209 0.52607 0.0937 3.5358-0.0405 7.4172 0.31391 11.048 2.0686 9e-3 5e-3 0.017 9e-3 0.0255 0.014 1.7266 0.94451 2.8821 2.1924 3.7211 3.2588 1.2292 1.4436 2.3161 2.9486 3.3307 4.448 1.0828 2.3911 2.1654 4.7838 3.2478 7.1782l1e-5 1e-5 -8.2145 7.8034c-4.7071 3.3839-9.7538 6.6764-15.525 8.7406h-1e-5c-3.3806 10.749-10.938 19.716-20.1 25.873-12.02 8.2125-27.027 11.487-41.405 9.7391-7.6994-0.9461-14.939-4.6356-20.265-10.264v-1e-5c-4.8746-5.2443-8.2151-11.623-10.515-18.175l-4.5609-23.65-1.3703-3.2751c-1.2739-3.0474-1.8456-4.9867-1.9537-6.111s0.24885-1.4284 0.84261-1.1684c1.1875 0.52011 3.3345 3.3406 4.5352 6.1288z"
       id="path80" />
    <path
       d="m364.35 506.18c-0.0713-0.96508-0.23579-1.8712-0.59293-2.6517-0.31711-0.66348-0.74792-1.2322-1.2443-1.4118-0.38473-0.20364-0.92883-0.24262-1.5337-0.25669-0.43868 5e-3 -1.0514 0.0944-1.8658 0.0601-0.48816-0.10732-1.2248 0.57251-2.3691 1.1434-1.4455 0.90472-2.8119 1.9945-4.1808 3.153-1.0891 0.92691-2.1424 1.8872-3.1528 2.8813-0.32069 0.25538-0.63851 0.51421-0.95329 0.77657-1.0375 0.88681-1.9856 1.6495-2.6495 2.4749-0.37707 0.34997-0.58915 1.0914-0.82138 1.9762-0.2044 0.9959-0.26364 2.0069-0.0965 2.9457 0.19569 0.82151 0.4166 1.572 0.8421 1.871 0.283 0.43062 1.1744 0.47631 2.0875 0.38873 3.2518-0.51422 6.3156-2.6579 9.2756-4.9502 2.1318-1.4726 4.1334-3.1115 5.9925-4.8943 1.0412-0.99839 1.9504-1.4738 2.4321-1.4705l0.38446 0.31455c0.042 0.21834-0.0123 0.55658-0.19112 1.016s-0.48117 1.0418-0.96139 1.7109c-1.5869 2.2112-3.3146 4.2951-5.1726 6.2282-1.9724 1.6987-4.2082 3.3748-6.763 4.5978-1.2756 0.63628-2.6364 1.1596-4.0925 1.5156-1.7193 0.47325-3.788 0.23219-5.6597-1.045h-1e-5c-1.4704-1.2522-2.2759-2.8219-2.5456-4.3113v-1e-5c-0.3477-1.5776-0.36092-3.1673-0.10877-4.673 0.1566-1.2685 0.61087-2.7045 1.5765-4.0868 1.0143-1.3355 2.1373-2.3767 3.1536-3.2833 1.4706-1.339 3.0041-2.6014 4.5863-3.7908 1.519-1.1478 3.1388-2.2715 4.9191-3.2446 0.94841-0.6871 2.5763-1.4649 4.8878-1.4386 0.28569 0.0398 0.86198-0.0177 1.7208 0.0325h1e-5c1.0007 0.0304 2.1399 0.30458 3.2984 0.94132 1.447 0.9405 2.3819 2.231 2.8072 3.5784 0.4332 1.3352 0.61061 2.6383 0.63977 3.8614 0.0229 1.0025-0.26092 1.556-0.61933 1.8278s-0.80585 0.26634-1.2434 0.11084-0.86858-0.46337-1.1994-0.81217-0.56097-0.73405-0.58693-1.0855z"
       id="path82" />
    <path
       d="m350.49 500.89c-0.3105-0.84273-0.75713-1.5813-1.3554-2.0795-0.71994-0.65929-1.7223-1.0181-2.738-1.1677-2.3068-0.35301-4.7282 0.41439-6.8908 1.5431-0.50035 0.26565-0.96391 0.59794-1.3935 0.98227-1.5304 0.95151-2.8848 2.5243-3.9695 4.2763-1.1899 2.2596-2.1107 4.8597-1.1543 6.7843 0.22836 0.60922 0.80107 1.1819 1.4313 1.3182 0.83146 0.25509 1.9073 0.0606 3.0446-0.22508 1.6727-0.45831 3.2965-1.2216 4.8673-2.1444 1.0561-0.62036 2.201-0.34129 2.7939 0.33784 0.29646 0.33956 0.44909 0.78222 0.35404 1.2604s-0.43987 0.99521-1.1404 1.4404c-1.7255 1.0967-3.6055 2.0513-5.6496 2.7202-1.3775 0.49771-3.0789 0.78489-4.958 0.4909-1.0947-0.23794-2.0644-0.73051-2.8541-1.4146-0.63809-0.5357-1.1656-1.1965-1.5522-1.9524-1.6669-3.7362-0.95998-7.7314 0.72413-10.726 1.5234-3.1271 4.0544-5.9978 7.5529-7.589 2.9015-1.3183 6.3327-1.9173 9.7741-1.162 1.6723 0.37057 3.3056 1.2362 4.6255 2.6239 0.99227 1.1447 1.6486 2.4341 2.0135 3.7431 0.2233 0.80463 0.05 1.3373-0.25448 1.6266s-0.74834 0.3508-1.2043 0.30318-0.92919-0.19993-1.3111-0.37813-0.67097-0.3814-0.75574-0.61148z"
       id="path84" />
    <path
       d="m338.31339,478.57324c1.13141,1.09277 1.96504,2.4823 2.62683,3.70165 .35688.63669.69535,1.28504 1.01859,1.94026 .12,1.29443.17922,2.56557.20784,3.81563-.0375,2.13247-.0765,4.253-.11699,6.36159-.009.45126-.95155.81739-1.87165.92217h-1e-005c1.16458-.12421 1.23898-.13216-.0714.008h-1e-005c-.83523.083-1.63056-.0491-1.666-.52874l-.28348-3.82916-.33833-2.27963c-.33968-1.77283-.72204-3.49475-1.24204-5.12523-.43522-1.23075-.75437-2.30009-1.24919-2.95042-.079-.10542.0465-.29168.27762-.53215s.57083-.52941.93854-.78875c.7354-.51868 1.60761-.87142 1.76971-.71484z"
       id="path86" />
    <path
       d="m412.25 468.74c-3.666 2.7522-8.1334 4.307-12.611 5.4402-1.241 0.21469-2.4784 0.39745-3.7004 0.5672-6.1708 0.89159-12.414 1.2465-18.616 0.98029-0.97484-0.0419-1.5508-0.46985-1.5886-0.86785s0.45327-0.76282 1.6105-0.73442c2.8907 0.0709 5.7874 4e-3 8.6784-0.1907 3.2025-0.26188 6.3936-0.68084 9.5578-1.2431 5.6162-1.0302 11.337-2.1915 15.771-5.2686 0.75016-0.51944 1.1392-0.35378 1.2734 0.0418s-0.0249 1.012-0.3753 1.2751z"
       id="path88" />
    <path
       d="m177.86 727.01c-0.2794-0.0652-0.35684-1.0935-0.0668-2.9571s0.9959-4.5469 2.056-7.6488c1.2913-3.7879 3.1422-8.2463 5.2623-12.582s4.5167-8.5602 6.7542-11.921c0.92206-1.3884 1.8166-2.6506 2.6553-3.7266s1.6199-1.9666 2.2964-2.6518c1.3529-1.3705 2.2533-1.9181 2.4713-1.7274s-0.23696 1.1082-1.1398 2.7308-2.2051 3.9888-3.7587 6.8866c-1.859 3.481-4.0126 7.6967-6.103 11.963-2.0873 4.2622-4.093 8.5347-5.7199 12.106-1.3397 2.9499-2.4294 5.3782-3.1895 7.0426s-1.2383 2.5507-1.5177 2.4855zm32.857-58.214c-0.15095-0.16256 0.0515-0.65521 0.60233-1.4401s1.4501-1.8612 2.6535-3.1379 2.7111-2.7522 4.4376-4.2998 3.6714-3.1648 5.7092-4.7186c3.282-2.5045 6.8494-4.8278 10.052-6.4513 1.3462-0.68965 2.6484-1.275 3.8322-1.7097s2.2479-0.72056 3.1274-0.87969c1.759-0.31825 2.7403-0.16029 2.7998 0.13703s-0.77501 0.72787-2.2414 1.5058c-0.73321 0.38897-1.6215 0.87388-2.6327 1.473s-2.1455 1.3142-3.3799 2.1024c-2.8818 1.8609-6.1948 4.2305-9.4344 6.6402-4.0192 2.992-7.8676 5.9744-10.671 8.0144-1.4018 1.02-2.5485 1.8055-3.374 2.2824s-1.3298 0.64444-1.4807 0.48188zm45.357-22.857c-0.0191-0.15278 0.43026-0.37684 1.3594-0.57903s2.3458-0.34546 4.1232-0.44829c1.8952-0.1118 4.2413-0.16525 6.9047-0.3289 2.1246-0.13229 4.4509-0.31495 6.8254-0.8275 1.8562-0.4154 3.739-0.96797 5.2336-2.0396 1.2832-0.78431 1.9782-2.5902 2.4468-4.5219 0.65742-3.1141 0.49743-6.5548 0.27413-10.059-0.34875-5.122-0.95117-10.184-1.5863-14.847s-1.2924-8.9242-1.7997-12.484-0.86538-6.4133-1.0233-8.3549-0.12135-2.9693 0.0992-3.0107 0.62481 0.90271 1.1922 2.7644 1.3033 4.639 2.1318 8.1476 1.7504 7.7472 2.5768 12.441 1.5472 9.8411 1.932 15.094c0.27693 3.5709 0.38507 7.3628-0.41783 11.035-0.47334 2.4451-1.748 4.9519-4.0041 6.5272-2.1397 1.3512-4.4251 1.9552-6.5074 2.2684-2.6672 0.42017-5.1368 0.45257-7.3263 0.40017-2.7578-0.0633-5.0993-0.26971-6.9792-0.4405-1.7885-0.15855-3.1316-0.30818-4.0435-0.40517s-1.3923-0.17919-1.4114-0.33197zm20-86.071c-0.12223 0.0165-0.32755-0.48956-0.53231-1.5298s-0.38439-2.6208-0.47858-4.6718c-0.10316-2.2206-0.10434-5.0124 0.0237-8.2829 0.21208-5.4244 0.77688-12.201 1.6819-19.823 0.71978-6.0651 1.6468-12.675 2.7919-19.524 0.74764-4.4787 1.5428-9.1055 2.6553-13.728 0.78057-3.1846 0.86404-6.6118 0.81436-10.074-0.0693-4.0005-0.42814-7.9865-0.88317-11.89-0.43172-3.6968-0.96462-7.3112-1.5124-10.801-0.36757-2.339-0.79318-4.6639-1.0692-6.975-0.1201-1.5318-1.114-3.0952-1.9605-4.8163-1.3747-2.6777-2.7313-5.2334-3.8226-7.7119l-1e-5 -1e-5c-1.562-3.5439-2.5758-6.8825-3.0699-9.7797-0.61726-3.6241-0.43023-6.4995-0.12915-8.3696s0.68544-2.768 0.84772-2.7378 0.10572 0.9852 0.12601 2.8118 0.15142 4.5536 0.99435 7.9111c0.67493 2.6922 1.8324 5.7741 3.4926 9.1042v1e-5c1.1577 2.3193 2.59 4.7574 4.0792 7.422 0.90877 1.5532 2.0562 3.3732 2.4592 5.764 0.32289 2.1804 0.80056 4.45 1.23 6.842 0.63029 3.5034 1.234 7.155 1.7242 10.918 0.51754 3.965 0.92049 8.0666 1.0142 12.239 0.0906 3.5734-0.023 7.3046-0.90438 10.975-1.0922 4.4721-1.9075 9.0193-2.713 13.482-1.2235 6.787-2.2816 13.332-3.1791 19.338-1.1281 7.552-1.9878 14.227-2.548 19.575-0.33761 3.2246-0.56625 5.959-0.70592 8.1429-0.12799 2.0265-0.18904 3.5647-0.22674 4.601s-0.0774 1.5721-0.1996 1.5886z"
       id="path90" />
    <path
       d="m196.34 640.41c-2.1069 0.55362-4.1408 1.3044-6.1163 2.1833-1.2936 0.33901-2.5816 0.73256-3.8597 1.1648-2.1225 0.72543-4.2191 1.473-6.1638 2.5127-0.40955 0.21891-0.86622 0.0379-1.107-0.2783s-0.24985-0.78131 0.2675-1.0848c1.2923-0.75807 2.6317-1.3873 3.9789-1.9518 0.76383-0.34594 1.5312-0.67104 2.2938-0.98675 3.338-1.3945 6.8289-2.5375 10.456-3.1412 0.96338-0.15859 0.65378 1.4762 0.25096 1.582z"
       id="path92" />
    <path
       d="m168.41 653.59c-1.8781 1.4753-3.7358 2.9693-5.5351 4.5197-2.6714 2.3016-5.2392 4.7126-7.6565 7.2506-0.44281 0.41261-0.88164 0.8295-1.3162 1.2508-6.481 6.3013-12.182 13.642-15.309 22.104-0.4374 1.1837-1.0313 1.8073-1.4309 1.7607s-0.60776-0.79294-0.0798-2.2813c1.3188-3.7178 3.1017-7.2304 5.2138-10.538 2.8454-4.5618 6.3164-8.7529 10.067-12.563h1e-5c2.9459-3.002 6.0896-5.7986 9.3594-8.4254 1.8827-1.5124 3.8089-2.9565 5.7447-4.3732 2.0695-1.5124 1.8347 0.59536 0.94307 1.2957z"
       id="path94" />
    <path
       d="m134.35 698.77c0.0458 1.1515 0.0916 2.2901 0.13737 3.4157-0.48854 1.8039-0.9771 3.629-1.4657 5.4756-0.065 0.24535-0.4964 0.40214-0.89167 0.42113h2e-5v-1e-5h1e-5l-0.077 2e-3h-4e-5c-0.353 4.1e-4 -0.65446-0.11903-0.60303-0.39532l0.41868-2.2464c0.3033-2.2955 0.60661-4.5948 0.90992-6.8977 0.0672-0.49681 1.5627 5e-3 1.5714 0.22513z"
       id="path96" />
    <path
       d="m132.37232,716.38342c.72454,2.23966 1.50426,4.4586 2.39003,6.60429 .6191,2.52515 1.3875,5.00274 2.39979,7.39679 .43707,1.03312.91196,2.04035 1.49225,2.98136h1e-005l.13002.20694c.12102.18864.15796.38602.14049.57739-.0126.11896-.0454.23681-.0927.34782-.0165.0769.0819.0166.0951.008l-.00013.00012v1e-005c-.0148.0102-.14546.10393-.58067.45417-.10682.0207-.22812.009-.35118-.036-.1725-.0561-.35282-.18877-.50651-.40814l-.15545-.22731c-.67933-1.0164-1.23452-2.07868-1.72775-3.14014-.13145-.28266-.25963-.5664-.38465-.85116-2.04395-4.33919-3.35642-8.9581-4.41339-13.56444-.22642-.99459 1.42624-.77795 1.56476-.34975z"
       id="path98" />
    <path
       d="m327.69961,702.38565c-.29622-1.2307-.47868-2.49406-1.17278-2.58765-.0627-.0336-.19701-.009-.37883.0145l-.27877-.0711c-.5388-.0815-1.16298-.054-1.83959-.041-.98663.14232-2.45125.06-3.43886-.96373-.52418-.74766-.61118-1.51873-.6388-2.20016-.0135-.33421.36946-.578.7574-.66033s.82372.05.87099.43816c.0798.65533.0579,1.13455.27828,1.26972 .008.12417.10504.18969.26569.22269 .3578.0447.99391-.0765 1.68772-.0646 .64021-.0819 1.34774-.17845 2.12628-.16622 .54307-.0224 1.21167.12735 1.87773.58124 1.33364,1.28383 1.52984,2.92838 1.53024,4.12268-.00079.32129-.39299.41017-.79026.39922s-.82104-.14633-.85644-.2934z"
       id="path100" />
    <path
       d="m314.48 692.84c-4.5938-1.1306-9.2581-1.8888-13.953-2.4259-2.6069-0.49601-5.2337-0.92402-7.8676-1.3086-5.0585-0.73792-10.184-1.2076-15.3-1.8251-2.0381-0.24607-2.303-1.8477 0.14775-1.5957 3.0608 0.31476 6.1389 0.57753 9.2225 0.87906 2.0506 0.17285 4.1041 0.36284 6.158 0.59667 7.4088 0.84176 14.832 2.0402 22.046 4.1431 0.99355 0.29052 1.0956 0.7366 0.84243 1.0729s-0.85701 0.57154-1.2962 0.46346z"
       id="path102" />
    <path
       d="m261.59 684.64c-5.9111 1.3648-11.582 3.6513-16.982 6.4121-2.321 1.188-4.5922 2.4675-6.8126 3.8285-3.7913 2.1183-7.4597 4.4738-10.994 7.0201-5.1084 3.682-9.9498 7.7474-14.291 12.307-2.503 2.6376-4.9246 5.3896-6.767 8.4637-0.95103 1.5867-1.7389 2.4651-2.1424 2.3987-0.20177-0.0332-0.30019-0.30966-0.20883-0.84631s0.37418-1.3355 0.96872-2.352c1.9076-3.2615 4.3735-6.1382 6.8949-8.823 1.4067-1.5059 2.8649-2.9596 4.3669-4.3648 3.1572-2.9967 6.5133-5.7784 9.9938-8.3762 5.6732-4.2369 11.723-7.9947 18.114-11.082 5.5692-2.6931 11.436-4.8924 17.538-6.1548 1.8778-0.38757 2.3668-0.0431 2.1729 0.39108s-1.0437 0.99094-1.8517 1.1775z"
       id="path104" />
    <path
       d="m195.51 730.06 2.5588 1.6463c1.0053 1.3135 2.0214 2.6361 3.0484 3.9676 0.13594 0.1763-0.0279 0.59038-0.2687 0.90725l-0.0538 0.0676v1e-5h-1e-5v1e-5c-0.22787 0.27298-0.50769 0.44425-0.67305 0.26334l-1.3503-1.4775-4.3857-4.243c-0.31472-0.30683 0.96009-1.2375 1.1244-1.1316z"
       id="path106" />
    <path
       d="m191.59271,735.40581c.99473.60743 1.96206,1.27436 2.90533,1.97518 .55596.76006 1.08499,1.53069 1.59766,2.30501 .43259.65216.85386,1.31051 1.26264,1.97498l.27224.44682c.0301.0499.0401.10845.0338.17194-.0105.10805-.0682.23017-.15512.34872-.11366.13641-.0251.099-.0108.0918l-.00025.00019c-.0171.009-.17108.0977-.71234.45374-.11239.0362-.21692.0442-.30147.0111-.0475-.019-.0888-.0508-.12177-.0975l-.29322-.41122c-.32293-.44854-.65196-.89338-.98668-1.33458-.1324-.15516-.2655-.30975-.39928-.46377-1.32438-1.52229-2.68753-2.98662-4.16587-4.28446-.35025-.30982.88493-1.30407 1.07511-1.18793z"
       id="path108" />
    <path
       d="m189.37895,742.83866 2.20456,1.03538 2.46899,2.97295c.10739.1296-.10444.4842-.37864.76968l-.0709.071c-.25654.24651-.54528.41677-.6745.29126l-1.06439-1.03365-3.5272-2.89608c-.25237-.20943.90242-1.27573 1.04211-1.21051z"
       id="path110" />
    <path
       d="m190.13 754.99c-1.0702 2.7318-2.2367 5.4382-3.5427 8.0942-0.62266 0.96017-1.2636 1.9083-1.9247 2.8422-2.1222 3.0203-4.4738 6.0617-7.4651 8.3084-0.51305 0.38527-1.0708 0.28399-1.3312-0.0169s-0.24219-0.77585 0.31788-1.2172c1.399-1.1024 2.6441-2.4272 3.8013-3.8673 1.0489-1.3674 2.0174-2.831 2.9645-4.3079 2.1394-3.3669 4.0187-6.9054 5.7351-10.529 0.534-1.1233 1.6494 0.1714 1.4448 0.69369z"
       id="path112" />
    <path
       d="m329.93 563.58c-0.13566 0.94114-0.14832 1.9298-0.17205 2.9241-0.0427 2.5406 0.14021 5.0859 0.38529 7.6349 0.42729 4.4316 1.0694 8.838 1.8438 13.225 0.3062 2.3239 0.6495 4.6457 1.0179 6.9647 1.1007 6.921 2.4353 13.804 4.214 20.576 0.71403 2.7174 1.4938 5.4116 2.4557 8.0374 0.34946 0.94807 0.7059 1.8904 1.1158 2.7966 0.35023 0.77427 0.58649 1.4112 0.70889 1.9023s0.1264 0.83933-9e-3 0.99122-0.41658 0.10418-0.80394-0.23571-0.8781-0.97807-1.3446-1.971c-0.45217-0.96232-0.83433-1.9383-1.192-2.8961-1.0155-2.686-1.8404-5.4222-2.5895-8.1598-0.37042-1.3527-0.72324-2.7094-1.06-4.0695-1.4059-5.4914-2.551-11.043-3.5414-16.612h-1e-5c-1.2012-6.7464-2.1929-13.554-2.6818-20.421-0.18495-2.5845-0.30391-5.2014-0.19447-7.8376 0.0277-0.99284 0.0747-2.0532 0.27132-3.1292 0.17155-0.93655 0.47547-1.4882 0.72458-1.7314s0.44664-0.19041 0.58016 3e-3 0.21397 0.52416 0.26147 0.88554 0.0627 0.75754 0.0102 1.1215z"
       id="path114" />
    <path
       d="m420.95598,481.02069c.98597,1.3056 1.61348,2.83276 2.12809,4.16237 .61556,1.51605 1.14531,3.07353 1.60312,4.65264 .0265.90599.0294,1.80723.0123,2.70294-.0431,2.57226-.24888,5.17982-.755,7.73569-.28126,1.57048-.71547,3.28742-1.57621,4.81457-.17765.3151-.53449.46192-.93213.45218s-.83633-.17298-1.22266-.40381-.72307-.52248-.93794-.79141-.31066-.5094-.19124-.74024c.47913-.92637.68905-2.25846.94806-3.72636 .0497-.34695.0928-.69611.12977-1.04727 .10196-1.94007.0173-3.92147-.16203-5.92235-.21262-2.30083-.55412-4.56614-1.09468-6.75454-.39103-1.38218-.64205-2.59522-1.10849-3.38831-.10392-.17865.0104-.38606.24276-.62986s.58622-.51535.97748-.73968 .8212-.39664 1.18379-.46699 .65663-.0399.75504.0904z"
       id="path116" />
    <path
       d="m387.68 539.53c6.5662 2.1827 13.337 3.5768 20.135 4.2646 1.9474 0.42957 3.9108 0.80114 5.8854 1.1152 5.0957 0.80424 10.255 1.1862 15.381 0.83765 4.0303-0.2791 8.0494-0.99399 11.815-2.4103 0.68178-0.25641 1.311-0.28372 1.8418-0.15432s0.96192 0.41685 1.2051 0.79716 0.29591 0.85567 0.0562 1.3406-0.7752 0.98126-1.6779 1.3512c-4.1283 1.6919-8.4815 2.619-12.798 3.0249-0.39853 0.0382-0.79704 0.0723-1.1955 0.10256-5.0726 0.48669-10.163 0.34035-15.161-0.20848-9.1846-0.99625-18.278-3.1981-26.876-6.7038-1.4307-0.58552-1.3843-1.5441-0.83284-2.2833s1.5936-1.2822 2.2213-1.0735z"
       id="path118" />
    <path
       d="m257.38856,638.03693c-2.12999-1.39732-4.30474-2.64259-6.63029-3.43377-1.53883-.5396-3.23254-.57517-4.82511-.18462-.54108.06-1.02555.72105-1.59922,1.41144-.67097.91782-1.21166,1.98072-1.77616,3.0859-.52643,1.04272-1.0478,2.15093-1.71726,3.24387-.24688.41176-.55241.85596-.96271,1.28699-.26152.3314-.74322.65943-1.46129.8431-.7987.0838-1.39116-.0529-1.74366-.19776-.69241-.1995-1.3355-.44292-1.94241-.67731-1.67459-.64222-3.29904-1.3105-4.92262-1.85003-1.78337-.58666-3.54962-1.07164-5.28356-1.18041-1.53278-.0667-3.03762.0823-4.04726.81249-1.31513.80137-2.23935,2.35986-3.1701,4.02071-1.05654,1.98935-1.8549,4.14949-2.55702,6.37676-.19205.61308-.37439,1.22919-.54714,1.84799-.42989,1.38231-.81193,2.7811-1.14711,4.19226-.16693.70441-.32108,1.40011-.44797,2.08948-.0673.43386-.14605.71567-.13596.85245-.16758,1.01173-.69387,1.64984-1.5298,1.87658-.65188.071-1.04233.035-1.16244-.0475-.70631-.1845-1.26782-.42929-1.71486-.63325-1.60724-.69807-3.13617-1.43072-4.65711-2.04254-1.77671-.70637-3.52089-1.32666-5.26164-1.56984-1.45925-.13633-2.87566-.19349-3.6665.47333-.41981.21627-.7337.86731-1.13067,1.62341-.49252,1.05906-.82489,2.24832-1.12628,3.49406-.75661,3.16607-1.1374,6.46479-1.4726,9.80468-.32006,3.21239-.54088,6.4586-.82894,9.72007-.10129,1.15401-.20829,2.33319-.38729,3.52614-.0585.39656-.1308.81918-.24155,1.26038-.0361.23267-.15286.59781-.42169,1.04706-.36821.5269-.91026.8668-1.54489.97039h-1e-005c-.63889.062-1.16039-.0318-1.54356-.17748-1.10588-.36226-2.02225-.88772-2.85627-1.3142-.99899-.49328-1.94571-.95227-2.89222-1.16044h-1e-005c-.85903-.17461-1.74265-.18714-2.3665.18125-.39969.14914-.72861.72033-1.17807,1.35421-.62069.973-1.11952,2.05847-1.58892,3.18529v1e-005c-1.27728,3.08-2.18327,6.33079-2.88333,9.63524-.76004,3.60588-1.25974,7.2636-1.25768,10.92157 .005.66399.0191,1.32998.0533,1.99164 .11015,2.12654.28519,3.77684.43899,4.97763s.24352,1.98239.0178,2.24398c-.11285.13079-.30259.12624-.56142-.0502s-.58692-.52609-.9329-1.08476-.70809-1.32817-1.00236-2.31949-.51591-2.2064-.59619-3.6028c-.0414-.71954-.0542-1.43069-.0487-2.12691-.0246-3.89575.46669-7.74184 1.23353-11.48178v-1e-005c.69502-3.42351 1.62593-6.84098 2.96041-10.13874 .48273-1.20186 1.04556-2.43324 1.78234-3.62499 .37519-.72619 1.04657-1.62983 2.21269-2.35572 1.4539-.72322 2.99056-.81315 4.32132-.48264v1e-005c1.34515.31285 2.51142.83979 3.5464,1.36336 .95433.46076 1.73494.92533 2.44354,1.1295l.0274.005c.22993.0414.31867.0938.24422.0651-.20083.0468-.32398.12365-.44883.28275-.0572.15547-.0788.0978.008-.1271 .071-.2837.12015-.61058.17239-.97404 .15087-1.07852.23735-2.19785.32606-3.349 .2459-3.22457.42844-6.48308.71458-9.76298 .29146-3.37798.65305-6.81785 1.41793-10.2401 .29556-1.34166.67841-2.73443 1.28022-4.10936 .37484-.97349 1.03967-2.07433 2.19512-2.97999 1.97675-1.27731 4.18651-1.44203 6.02401-1.11718 2.16838.29761 4.1833.96279 6.0633,1.7038h1e-005c1.66238.64792 3.23004,1.37411 4.76762,2.02081 .49638.19936.87643.37829 1.1668.43472 .13797-.0202.0166.008-.37517.0253-.68391.19512-1.08535.70056-1.25193,1.55579l-1e-005,3e-005c.0138-.6389.10502-1.122.17343-1.45268 .13281-.77268.28998-1.52933.45697-2.2718 .48362-2.15487 1.07221-4.28825 1.76916-6.38792 .77155-2.3372 1.69386-4.68071 2.92339-6.91919 .96783-1.85553 2.31798-3.81155 4.41474-5.1955 1.96741-1.16076 4.15459-1.44006 6.11341-1.22516 2.15456.19818 4.17398.77125 6.05657,1.44466 1.74817.61771 3.40283,1.32852 5.02075,1.98044 .59844.23872 1.1502.46125 1.671.61539 .43101.0642.55803.1779.35784.12761-.28026.13198-.34228.0904-.17683.0167 .1714-.15806.34723-.42888.57123-.7647 .57048-.88739 1.06955-1.91848 1.64598-3.00518 .57932-1.11078 1.22205-2.29568 2.07682-3.44462 .56941-.92523 1.62506-1.93172 3.28432-2.44219 2.0948-.46121 4.30839-.35848 6.38159.37334 2.61919.97399 4.96812,2.35212 7.1674,3.83834 1.85081,1.25165 2.8087,2.18622 3.23689,2.79738s.31197.92265-.12056,1.00819c-.86506.17108-3.00207-.58753-4.59521-1.63267z"
       id="path120" />
    <path
       d="m327.35 657.61c1.8046-3.326 3.9548-6.5804 6.7064-9.4018 1.4394-1.1017 2.9713-2.0831 4.6026-2.9025 2.312-1.1619 4.8939-1.9018 7.5193-1.9001 2.1915 0.0173 4.3054 0.59389 6.1755 1.5713 0.75136 0.39279 0.85504 1.2372 0.56587 1.8183-0.14458 0.29055-0.37851 0.52339-0.66142 0.63796s-0.61189 0.11157-0.9885-0.0707c-1.5523-0.75138-3.264-1.1709-4.9548-1.1211-0.36296 5e-3 -0.72721 0.0316-1.0917 0.0768-1.6994 0.26612-3.3799 0.94375-4.9531 1.8358-4.3746 2.4782-7.8016 6.5339-10.744 10.923-0.43462 0.64556-1.0607 0.44413-1.5412-3e-3s-0.80725-1.1464-0.63474-1.4644z"
       id="path122" />
    <path
       d="m360.78 717.6c2.6842 1.8483 5.7476 3.106 8.878 4.1727 1.9668 0.66186 3.9636 1.2154 5.9787 1.6667 2.1462 0.72884 4.3403 1.3419 6.5652 1.8423 3.9932 0.88979 8.052 1.4558 12.095 1.2533 2.4418-0.1552 4.9321-0.47599 6.9642-1.5496 0.47792-0.25247 0.92192-0.36528 1.3279-0.36985 0.40595-5e-3 0.77287 0.10225 1.0151 0.32024s0.35479 0.55309 0.21648 0.96445-0.53381 0.90241-1.2547 1.3143c-2.5381 1.4504-5.3927 1.9742-8.0182 2.116-1.1051 0.0819-2.2076 0.11323-3.3056 0.10085-3.255 0.0225-6.4852-0.33867-9.6327-0.90489-4.4967-0.79956-8.9275-2.0447-13.179-3.7723-3.205-1.2865-6.4187-2.8778-9.27-5.1056-0.49951-0.39124-0.69292-0.76897-0.69004-1.0839s0.20018-0.57029 0.47765-0.75679c0.55493-0.37299 1.4141-0.49585 1.8323-0.20787z"
       id="path124" />
    <path
       d="m372.81 725.96-1.2538 2.241-3.7273 1.4118c-0.32585 0.12326-1.8992-1.9043-1.548-2.111l1.3154-0.77462 3.6657-2.8782c0.26552-0.20463 1.628 1.9682 1.548 2.111z"
       id="path126" />
    <path
       d="m492.28 699.66c-2.7839 0.80404-5.442 1.8996-8.04 3.1479-2.1242 0.54001-4.253 1.1808-6.3785 1.8574l-7.2898 2.6143c-0.61755 0.22152-1.2735-0.26606-1.5659-0.86822 0.36542 0.7751 0.38291 0.8122-0.0168-0.0356l-1e-5 -2e-5v1e-5 -1e-5c-0.25281-0.5518-0.19465-1.1903 0.47742-1.4679l5.3364-2.204 1.8672-0.84925c4.8263-2.0082 9.8592-3.8622 15.193-4.7763 0.65134-0.11009 0.88599 0.50488 0.88974 1.158s-0.20684 1.347-0.47297 1.4238z"
       id="path128" />
    <path
       d="m482.15 625.75c0.0504 9.7478-0.23747 19.529-1.4128 29.278-0.51159 4.268-1.199 8.5474-2.1566 12.78-1.4414 5.3608-3.3154 10.61-5.8028 15.601-4.0694 8.1646-10.028 15.47-17.634 20.516v1e-5c-7.4135 4.8872-15.996 7.527-24.696 8.6501-3.0299 0.39103-4.919-0.16019-5.1263-0.79326-0.10367-0.31653 0.20492-0.65924 0.97739-0.97083s2.008-0.58965 3.7723-0.83576c8.3896-1.1704 16.564-3.745 23.451-8.422 0.34873-0.23449 0.69373-0.47434 1.035-0.71937 6.5519-4.782 11.676-11.474 15.225-18.866 4.0937-8.5235 6.3009-17.92 7.6844-27.418 1.3781-9.5163 1.886-19.169 2.0654-28.852 0.057-2.9956 0.6935-3.6549 1.3348-3.2289s1.2763 1.942 1.2832 3.2819z"
       id="path130" />
    <path
       d="m344.59 661.97c3.5516-11.154 8.9344-21.926 17.19-30.631 6.1849-6.6529 14.796-12.236 24.828-12.128 1.4684 0.057 2.9213 0.23601 4.3472 0.52683 5.1493 1.2747 9.8126 4.0064 13.51 7.6335 5.0842 5.0091 8.5989 11.152 11.201 17.412 2.8813 6.8666 4.8152 14.032 6.1572 21.233 1.2685 6.7817 2.0298 13.655 2.235 20.542 0.0909 4.0478-1.037 7.8328-2.3876 11.286l-1e-5 1e-5c-1.5244 3.97-3.4368 7.7344-5.5011 11.363l-3.8162 5.926c-2.6305 4.0845-5.1953 5.7943-6.1981 5.1451h-1e-5l-0.0161-0.0107-9e-5 -7e-5c-0.89767-0.61414-0.51716-3.1464 2.2698-7.5831l3.6761-5.8522c1.9257-3.4895 3.6749-7.0183 5.0093-10.648 1.1617-3.2795 2.1515-6.4435 1.9777-9.3891-0.15406-3.7893-0.48431-7.5747-0.98105-11.342-0.39499-2.8044-0.88227-5.5968-1.4576-8.3714-1.4375-6.8989-3.3945-13.655-6.2101-19.987h-1e-5c-2.591-5.7637-5.7801-11.205-10.162-15.271-3.8867-3.6214-8.911-6.096-14.013-6.3246-7.3341-0.60976-14.637 4.1619-20.535 9.8095-7.7376 7.6346-13.012 17.623-16.721 28.207-0.74593 2.1243-1.4206 3.3524-2.0474 3.9322s-1.1991 0.5104-1.6558 0.0387c-0.91348-0.94339-1.333-3.528-0.69944-5.5177z"
       id="path132" />
    <path
       d="m274.24 565.84c-0.15977-0.43362 0.0245-0.99099 0.5009-1.5148s1.2389-1.0075 2.0724-1.3146 1.7275-0.43379 2.4298-0.34432 1.2042 0.394 1.364 0.82763-0.0245 0.99098-0.50091 1.5147-1.2389 1.0075-2.0723 1.3146-1.7275 0.43378-2.4298 0.34431-1.2042-0.394-1.364-0.82762z"
       id="path134" />
    <path
       d="m273.75015,571.03945c-.0421-.46019.28015-.95088.87582-1.33352s1.45742-.65255 2.34194-.7335 1.78094.028 2.43617.29621 1.06122.6922 1.10334,1.15239-.28015.95088-.87583,1.33352-1.45741.65255-2.34193.7335-1.78094-.028-2.43618-.29621-1.06121-.6922-1.10333-1.15239z"
       id="path136" />
    <path
       d="m277.43 576.87c0.45864-0.0566 0.95925 0.24998 1.3605 0.83327s0.69825 1.4361 0.80709 2.3176 0.0282 1.7809-0.21912 2.4443-0.65834 1.0826-1.117 1.1392-0.95925-0.24998-1.3605-0.83327-0.69825-1.4361-0.80709-2.3176-0.0282-1.7809 0.21912-2.4443 0.65834-1.0826 1.117-1.1392z"
       id="path138" />
  </g>
</svg>
